<mxfile host="app.diagrams.net" agent="Mozilla/5.0 (Windows NT 10.0; Win64; x64) AppleWebKit/537.36 (KHTML, like Gecko) Chrome/130.0.0.0 Safari/537.36" version="24.8.3">
  <diagram name="Page-1" id="OWs0vWbREfOvVOroRO99">
    <mxGraphModel dx="1434" dy="780" grid="1" gridSize="10" guides="1" tooltips="1" connect="1" arrows="1" fold="1" page="1" pageScale="1" pageWidth="850" pageHeight="1100" math="0" shadow="0">
      <root>
        <mxCell id="0" />
        <mxCell id="1" parent="0" />
        <mxCell id="pJJjCT_8jM6wzj25OI1I-142" style="edgeStyle=orthogonalEdgeStyle;rounded=0;orthogonalLoop=1;jettySize=auto;html=1;exitX=0.5;exitY=1;exitDx=0;exitDy=0;" parent="1" source="pJJjCT_8jM6wzj25OI1I-134" edge="1">
          <mxGeometry relative="1" as="geometry">
            <mxPoint x="460" y="6820" as="targetPoint" />
          </mxGeometry>
        </mxCell>
        <mxCell id="pJJjCT_8jM6wzj25OI1I-141" style="edgeStyle=orthogonalEdgeStyle;rounded=0;orthogonalLoop=1;jettySize=auto;html=1;exitX=0.5;exitY=1;exitDx=0;exitDy=0;" parent="1" source="pJJjCT_8jM6wzj25OI1I-113" edge="1">
          <mxGeometry relative="1" as="geometry">
            <mxPoint x="460" y="6940" as="targetPoint" />
          </mxGeometry>
        </mxCell>
        <mxCell id="j0sWOrv8RblTwBq7Di3Q-79" style="edgeStyle=orthogonalEdgeStyle;rounded=0;orthogonalLoop=1;jettySize=auto;html=1;exitX=0.5;exitY=1;exitDx=0;exitDy=0;" parent="1" source="j0sWOrv8RblTwBq7Di3Q-67" edge="1">
          <mxGeometry relative="1" as="geometry">
            <mxPoint x="440" y="5030" as="targetPoint" />
          </mxGeometry>
        </mxCell>
        <mxCell id="HygxTOMGA-l27CwLSRFN-1" value="&lt;font size=&quot;3&quot;&gt;início&lt;/font&gt;" style="ellipse;whiteSpace=wrap;html=1;" parent="1" vertex="1">
          <mxGeometry x="90" y="10" width="120" height="80" as="geometry" />
        </mxCell>
        <mxCell id="HygxTOMGA-l27CwLSRFN-2" value="" style="shape=flexArrow;endArrow=classic;html=1;rounded=0;" parent="1" edge="1">
          <mxGeometry width="50" height="50" relative="1" as="geometry">
            <mxPoint x="149.5" y="90" as="sourcePoint" />
            <mxPoint x="149.5" y="140" as="targetPoint" />
            <Array as="points">
              <mxPoint x="149.5" y="100" />
            </Array>
          </mxGeometry>
        </mxCell>
        <mxCell id="HygxTOMGA-l27CwLSRFN-3" value="Pedro" style="shape=parallelogram;perimeter=parallelogramPerimeter;whiteSpace=wrap;html=1;fixedSize=1;" parent="1" vertex="1">
          <mxGeometry x="90" y="140" width="120" height="60" as="geometry" />
        </mxCell>
        <mxCell id="HygxTOMGA-l27CwLSRFN-4" value="" style="shape=flexArrow;endArrow=classic;html=1;rounded=0;" parent="1" edge="1">
          <mxGeometry width="50" height="50" relative="1" as="geometry">
            <mxPoint x="149.5" y="200" as="sourcePoint" />
            <mxPoint x="149.5" y="250" as="targetPoint" />
            <Array as="points">
              <mxPoint x="149.5" y="210" />
            </Array>
          </mxGeometry>
        </mxCell>
        <mxCell id="HygxTOMGA-l27CwLSRFN-5" value="nomePai" style="whiteSpace=wrap;html=1;aspect=fixed;" parent="1" vertex="1">
          <mxGeometry x="110" y="250" width="80" height="80" as="geometry" />
        </mxCell>
        <mxCell id="HygxTOMGA-l27CwLSRFN-10" value="" style="shape=flexArrow;endArrow=classic;html=1;rounded=0;" parent="1" edge="1">
          <mxGeometry width="50" height="50" relative="1" as="geometry">
            <mxPoint x="149.5" y="330" as="sourcePoint" />
            <mxPoint x="149.5" y="380" as="targetPoint" />
            <Array as="points">
              <mxPoint x="149.5" y="340" />
            </Array>
          </mxGeometry>
        </mxCell>
        <mxCell id="HygxTOMGA-l27CwLSRFN-11" value="" style="shape=dataStorage;whiteSpace=wrap;html=1;fixedSize=1;" parent="1" vertex="1">
          <mxGeometry x="100" y="380" width="100" height="80" as="geometry" />
        </mxCell>
        <mxCell id="HygxTOMGA-l27CwLSRFN-12" value="" style="shape=flexArrow;endArrow=classic;html=1;rounded=0;" parent="1" edge="1">
          <mxGeometry width="50" height="50" relative="1" as="geometry">
            <mxPoint x="149.5" y="460" as="sourcePoint" />
            <mxPoint x="149.5" y="510" as="targetPoint" />
            <Array as="points">
              <mxPoint x="149.5" y="470" />
            </Array>
          </mxGeometry>
        </mxCell>
        <mxCell id="HygxTOMGA-l27CwLSRFN-14" value="fim" style="ellipse;whiteSpace=wrap;html=1;" parent="1" vertex="1">
          <mxGeometry x="90" y="510" width="120" height="80" as="geometry" />
        </mxCell>
        <mxCell id="HygxTOMGA-l27CwLSRFN-15" value="nomePai" style="whiteSpace=wrap;html=1;aspect=fixed;" parent="1" vertex="1">
          <mxGeometry x="125" y="395" width="50" height="50" as="geometry" />
        </mxCell>
        <mxCell id="HygxTOMGA-l27CwLSRFN-16" value="&lt;font size=&quot;3&quot;&gt;início&lt;/font&gt;" style="ellipse;whiteSpace=wrap;html=1;" parent="1" vertex="1">
          <mxGeometry x="450" y="10" width="120" height="80" as="geometry" />
        </mxCell>
        <mxCell id="HygxTOMGA-l27CwLSRFN-17" value="" style="shape=flexArrow;endArrow=classic;html=1;rounded=0;" parent="1" edge="1">
          <mxGeometry width="50" height="50" relative="1" as="geometry">
            <mxPoint x="509.5" y="90" as="sourcePoint" />
            <mxPoint x="509.5" y="140" as="targetPoint" />
            <Array as="points">
              <mxPoint x="509.5" y="100" />
            </Array>
          </mxGeometry>
        </mxCell>
        <mxCell id="HygxTOMGA-l27CwLSRFN-18" value="420" style="shape=parallelogram;perimeter=parallelogramPerimeter;whiteSpace=wrap;html=1;fixedSize=1;" parent="1" vertex="1">
          <mxGeometry x="450" y="140" width="120" height="60" as="geometry" />
        </mxCell>
        <mxCell id="HygxTOMGA-l27CwLSRFN-19" value="" style="shape=flexArrow;endArrow=classic;html=1;rounded=0;" parent="1" edge="1">
          <mxGeometry width="50" height="50" relative="1" as="geometry">
            <mxPoint x="509.5" y="200" as="sourcePoint" />
            <mxPoint x="509.5" y="250" as="targetPoint" />
            <Array as="points">
              <mxPoint x="509.5" y="210" />
            </Array>
          </mxGeometry>
        </mxCell>
        <mxCell id="HygxTOMGA-l27CwLSRFN-20" value="preco" style="whiteSpace=wrap;html=1;aspect=fixed;" parent="1" vertex="1">
          <mxGeometry x="470" y="250" width="80" height="80" as="geometry" />
        </mxCell>
        <mxCell id="HygxTOMGA-l27CwLSRFN-21" value="" style="shape=flexArrow;endArrow=classic;html=1;rounded=0;" parent="1" edge="1">
          <mxGeometry width="50" height="50" relative="1" as="geometry">
            <mxPoint x="509.5" y="330" as="sourcePoint" />
            <mxPoint x="509.5" y="380" as="targetPoint" />
            <Array as="points">
              <mxPoint x="509.5" y="340" />
            </Array>
          </mxGeometry>
        </mxCell>
        <mxCell id="HygxTOMGA-l27CwLSRFN-22" value="" style="shape=dataStorage;whiteSpace=wrap;html=1;fixedSize=1;" parent="1" vertex="1">
          <mxGeometry x="460" y="380" width="100" height="80" as="geometry" />
        </mxCell>
        <mxCell id="HygxTOMGA-l27CwLSRFN-23" value="" style="shape=flexArrow;endArrow=classic;html=1;rounded=0;" parent="1" edge="1">
          <mxGeometry width="50" height="50" relative="1" as="geometry">
            <mxPoint x="509.5" y="460" as="sourcePoint" />
            <mxPoint x="509.5" y="510" as="targetPoint" />
            <Array as="points">
              <mxPoint x="509.5" y="470" />
            </Array>
          </mxGeometry>
        </mxCell>
        <mxCell id="HygxTOMGA-l27CwLSRFN-24" value="fim" style="ellipse;whiteSpace=wrap;html=1;" parent="1" vertex="1">
          <mxGeometry x="450" y="510" width="120" height="80" as="geometry" />
        </mxCell>
        <mxCell id="HygxTOMGA-l27CwLSRFN-25" value="preco" style="whiteSpace=wrap;html=1;aspect=fixed;" parent="1" vertex="1">
          <mxGeometry x="485" y="395" width="50" height="50" as="geometry" />
        </mxCell>
        <mxCell id="HygxTOMGA-l27CwLSRFN-26" value="&lt;font size=&quot;3&quot;&gt;início&lt;/font&gt;" style="ellipse;whiteSpace=wrap;html=1;" parent="1" vertex="1">
          <mxGeometry x="100" y="630" width="120" height="80" as="geometry" />
        </mxCell>
        <mxCell id="HygxTOMGA-l27CwLSRFN-27" value="" style="shape=flexArrow;endArrow=classic;html=1;rounded=0;" parent="1" edge="1">
          <mxGeometry width="50" height="50" relative="1" as="geometry">
            <mxPoint x="159.5" y="710" as="sourcePoint" />
            <mxPoint x="159.5" y="760" as="targetPoint" />
            <Array as="points">
              <mxPoint x="159.5" y="720" />
            </Array>
          </mxGeometry>
        </mxCell>
        <mxCell id="HygxTOMGA-l27CwLSRFN-28" value="toto" style="shape=parallelogram;perimeter=parallelogramPerimeter;whiteSpace=wrap;html=1;fixedSize=1;" parent="1" vertex="1">
          <mxGeometry x="100" y="760" width="120" height="60" as="geometry" />
        </mxCell>
        <mxCell id="HygxTOMGA-l27CwLSRFN-30" value="raca" style="whiteSpace=wrap;html=1;aspect=fixed;" parent="1" vertex="1">
          <mxGeometry x="120" y="1110" width="80" height="80" as="geometry" />
        </mxCell>
        <mxCell id="HygxTOMGA-l27CwLSRFN-31" value="" style="shape=flexArrow;endArrow=classic;html=1;rounded=0;" parent="1" edge="1">
          <mxGeometry width="50" height="50" relative="1" as="geometry">
            <mxPoint x="159.5" y="950" as="sourcePoint" />
            <mxPoint x="159.5" y="1000" as="targetPoint" />
            <Array as="points">
              <mxPoint x="159.5" y="960" />
            </Array>
          </mxGeometry>
        </mxCell>
        <mxCell id="HygxTOMGA-l27CwLSRFN-32" value="" style="shape=dataStorage;whiteSpace=wrap;html=1;fixedSize=1;" parent="1" vertex="1">
          <mxGeometry x="105" y="1380" width="100" height="80" as="geometry" />
        </mxCell>
        <mxCell id="HygxTOMGA-l27CwLSRFN-33" value="" style="shape=flexArrow;endArrow=classic;html=1;rounded=0;" parent="1" edge="1">
          <mxGeometry width="50" height="50" relative="1" as="geometry">
            <mxPoint x="159.5" y="1460" as="sourcePoint" />
            <mxPoint x="159.5" y="1510" as="targetPoint" />
            <Array as="points">
              <mxPoint x="159.5" y="1470" />
            </Array>
          </mxGeometry>
        </mxCell>
        <mxCell id="HygxTOMGA-l27CwLSRFN-34" value="fim" style="ellipse;whiteSpace=wrap;html=1;" parent="1" vertex="1">
          <mxGeometry x="100" y="1510" width="120" height="80" as="geometry" />
        </mxCell>
        <mxCell id="HygxTOMGA-l27CwLSRFN-35" value="raca" style="whiteSpace=wrap;html=1;aspect=fixed;" parent="1" vertex="1">
          <mxGeometry x="130" y="1395" width="50" height="50" as="geometry" />
        </mxCell>
        <mxCell id="HygxTOMGA-l27CwLSRFN-36" value="fila" style="shape=parallelogram;perimeter=parallelogramPerimeter;whiteSpace=wrap;html=1;fixedSize=1;" parent="1" vertex="1">
          <mxGeometry x="100" y="1000" width="120" height="60" as="geometry" />
        </mxCell>
        <mxCell id="HygxTOMGA-l27CwLSRFN-37" value="" style="shape=flexArrow;endArrow=classic;html=1;rounded=0;" parent="1" edge="1">
          <mxGeometry width="50" height="50" relative="1" as="geometry">
            <mxPoint x="159.33" y="1060" as="sourcePoint" />
            <mxPoint x="159.33" y="1110" as="targetPoint" />
            <Array as="points">
              <mxPoint x="159.33" y="1070" />
            </Array>
          </mxGeometry>
        </mxCell>
        <mxCell id="HygxTOMGA-l27CwLSRFN-39" value="" style="shape=flexArrow;endArrow=classic;html=1;rounded=0;" parent="1" edge="1">
          <mxGeometry width="50" height="50" relative="1" as="geometry">
            <mxPoint x="159.33000000000007" y="1330" as="sourcePoint" />
            <mxPoint x="159.33000000000007" y="1380" as="targetPoint" />
            <Array as="points">
              <mxPoint x="159.33000000000007" y="1340" />
            </Array>
          </mxGeometry>
        </mxCell>
        <mxCell id="HygxTOMGA-l27CwLSRFN-40" value="" style="shape=dataStorage;whiteSpace=wrap;html=1;fixedSize=1;" parent="1" vertex="1">
          <mxGeometry x="105" y="1250" width="100" height="80" as="geometry" />
        </mxCell>
        <mxCell id="HygxTOMGA-l27CwLSRFN-41" value="nome" style="whiteSpace=wrap;html=1;aspect=fixed;" parent="1" vertex="1">
          <mxGeometry x="130" y="1265" width="50" height="50" as="geometry" />
        </mxCell>
        <mxCell id="HygxTOMGA-l27CwLSRFN-42" value="" style="shape=flexArrow;endArrow=classic;html=1;rounded=0;" parent="1" target="HygxTOMGA-l27CwLSRFN-38" edge="1">
          <mxGeometry width="50" height="50" relative="1" as="geometry">
            <mxPoint x="159.5" y="820" as="sourcePoint" />
            <mxPoint x="159.5" y="870" as="targetPoint" />
            <Array as="points" />
          </mxGeometry>
        </mxCell>
        <mxCell id="HygxTOMGA-l27CwLSRFN-38" value="nome" style="whiteSpace=wrap;html=1;aspect=fixed;" parent="1" vertex="1">
          <mxGeometry x="115" y="870" width="80" height="80" as="geometry" />
        </mxCell>
        <mxCell id="HygxTOMGA-l27CwLSRFN-44" value="" style="shape=flexArrow;endArrow=classic;html=1;rounded=0;" parent="1" edge="1">
          <mxGeometry width="50" height="50" relative="1" as="geometry">
            <mxPoint x="159.33" y="1190" as="sourcePoint" />
            <mxPoint x="159.33" y="1250" as="targetPoint" />
          </mxGeometry>
        </mxCell>
        <mxCell id="HygxTOMGA-l27CwLSRFN-45" value="&lt;font size=&quot;3&quot;&gt;início&lt;/font&gt;" style="ellipse;whiteSpace=wrap;html=1;" parent="1" vertex="1">
          <mxGeometry x="510" y="630" width="120" height="80" as="geometry" />
        </mxCell>
        <mxCell id="HygxTOMGA-l27CwLSRFN-46" value="" style="shape=flexArrow;endArrow=classic;html=1;rounded=0;" parent="1" edge="1">
          <mxGeometry width="50" height="50" relative="1" as="geometry">
            <mxPoint x="569.5" y="710" as="sourcePoint" />
            <mxPoint x="569.5" y="760" as="targetPoint" />
            <Array as="points">
              <mxPoint x="569.5" y="720" />
            </Array>
          </mxGeometry>
        </mxCell>
        <mxCell id="HygxTOMGA-l27CwLSRFN-47" value="75" style="shape=parallelogram;perimeter=parallelogramPerimeter;whiteSpace=wrap;html=1;fixedSize=1;" parent="1" vertex="1">
          <mxGeometry x="510" y="760" width="120" height="60" as="geometry" />
        </mxCell>
        <mxCell id="HygxTOMGA-l27CwLSRFN-48" value="altura" style="whiteSpace=wrap;html=1;aspect=fixed;" parent="1" vertex="1">
          <mxGeometry x="530" y="1110" width="80" height="80" as="geometry" />
        </mxCell>
        <mxCell id="HygxTOMGA-l27CwLSRFN-49" value="" style="shape=flexArrow;endArrow=classic;html=1;rounded=0;" parent="1" edge="1">
          <mxGeometry width="50" height="50" relative="1" as="geometry">
            <mxPoint x="569.5" y="950" as="sourcePoint" />
            <mxPoint x="569.5" y="1000" as="targetPoint" />
            <Array as="points">
              <mxPoint x="569.5" y="960" />
            </Array>
          </mxGeometry>
        </mxCell>
        <mxCell id="HygxTOMGA-l27CwLSRFN-50" value="" style="shape=dataStorage;whiteSpace=wrap;html=1;fixedSize=1;" parent="1" vertex="1">
          <mxGeometry x="515" y="1380" width="100" height="80" as="geometry" />
        </mxCell>
        <mxCell id="HygxTOMGA-l27CwLSRFN-51" value="" style="shape=flexArrow;endArrow=classic;html=1;rounded=0;" parent="1" edge="1">
          <mxGeometry width="50" height="50" relative="1" as="geometry">
            <mxPoint x="569.5" y="1460" as="sourcePoint" />
            <mxPoint x="569.5" y="1510" as="targetPoint" />
            <Array as="points">
              <mxPoint x="569.5" y="1470" />
            </Array>
          </mxGeometry>
        </mxCell>
        <mxCell id="HygxTOMGA-l27CwLSRFN-52" value="fim" style="ellipse;whiteSpace=wrap;html=1;" parent="1" vertex="1">
          <mxGeometry x="510" y="1510" width="120" height="80" as="geometry" />
        </mxCell>
        <mxCell id="HygxTOMGA-l27CwLSRFN-53" value="altura" style="whiteSpace=wrap;html=1;aspect=fixed;" parent="1" vertex="1">
          <mxGeometry x="540" y="1395" width="50" height="50" as="geometry" />
        </mxCell>
        <mxCell id="HygxTOMGA-l27CwLSRFN-54" value="170" style="shape=parallelogram;perimeter=parallelogramPerimeter;whiteSpace=wrap;html=1;fixedSize=1;" parent="1" vertex="1">
          <mxGeometry x="510" y="1000" width="120" height="60" as="geometry" />
        </mxCell>
        <mxCell id="HygxTOMGA-l27CwLSRFN-55" value="" style="shape=flexArrow;endArrow=classic;html=1;rounded=0;" parent="1" edge="1">
          <mxGeometry width="50" height="50" relative="1" as="geometry">
            <mxPoint x="569.33" y="1060" as="sourcePoint" />
            <mxPoint x="569.33" y="1110" as="targetPoint" />
            <Array as="points">
              <mxPoint x="569.33" y="1070" />
            </Array>
          </mxGeometry>
        </mxCell>
        <mxCell id="HygxTOMGA-l27CwLSRFN-56" value="" style="shape=flexArrow;endArrow=classic;html=1;rounded=0;" parent="1" edge="1">
          <mxGeometry width="50" height="50" relative="1" as="geometry">
            <mxPoint x="569.33" y="1330" as="sourcePoint" />
            <mxPoint x="569.33" y="1380" as="targetPoint" />
            <Array as="points">
              <mxPoint x="569.33" y="1340" />
            </Array>
          </mxGeometry>
        </mxCell>
        <mxCell id="HygxTOMGA-l27CwLSRFN-57" value="" style="shape=dataStorage;whiteSpace=wrap;html=1;fixedSize=1;" parent="1" vertex="1">
          <mxGeometry x="515" y="1250" width="100" height="80" as="geometry" />
        </mxCell>
        <mxCell id="HygxTOMGA-l27CwLSRFN-58" value="peso" style="whiteSpace=wrap;html=1;aspect=fixed;" parent="1" vertex="1">
          <mxGeometry x="540" y="1265" width="50" height="50" as="geometry" />
        </mxCell>
        <mxCell id="HygxTOMGA-l27CwLSRFN-59" value="" style="shape=flexArrow;endArrow=classic;html=1;rounded=0;" parent="1" target="HygxTOMGA-l27CwLSRFN-60" edge="1">
          <mxGeometry width="50" height="50" relative="1" as="geometry">
            <mxPoint x="569.5" y="820" as="sourcePoint" />
            <mxPoint x="569.5" y="870" as="targetPoint" />
            <Array as="points" />
          </mxGeometry>
        </mxCell>
        <mxCell id="HygxTOMGA-l27CwLSRFN-60" value="peso" style="whiteSpace=wrap;html=1;aspect=fixed;" parent="1" vertex="1">
          <mxGeometry x="525" y="870" width="80" height="80" as="geometry" />
        </mxCell>
        <mxCell id="HygxTOMGA-l27CwLSRFN-61" value="" style="shape=flexArrow;endArrow=classic;html=1;rounded=0;" parent="1" edge="1">
          <mxGeometry width="50" height="50" relative="1" as="geometry">
            <mxPoint x="569.33" y="1190" as="sourcePoint" />
            <mxPoint x="569.33" y="1250" as="targetPoint" />
          </mxGeometry>
        </mxCell>
        <mxCell id="HygxTOMGA-l27CwLSRFN-62" value="&lt;font size=&quot;3&quot;&gt;início&lt;/font&gt;" style="ellipse;whiteSpace=wrap;html=1;" parent="1" vertex="1">
          <mxGeometry x="105" y="1630" width="120" height="80" as="geometry" />
        </mxCell>
        <mxCell id="HygxTOMGA-l27CwLSRFN-63" value="" style="shape=flexArrow;endArrow=classic;html=1;rounded=0;" parent="1" edge="1">
          <mxGeometry width="50" height="50" relative="1" as="geometry">
            <mxPoint x="164.5" y="1710" as="sourcePoint" />
            <mxPoint x="164.5" y="1760" as="targetPoint" />
            <Array as="points">
              <mxPoint x="164.5" y="1720" />
            </Array>
          </mxGeometry>
        </mxCell>
        <mxCell id="HygxTOMGA-l27CwLSRFN-64" value="75" style="shape=parallelogram;perimeter=parallelogramPerimeter;whiteSpace=wrap;html=1;fixedSize=1;" parent="1" vertex="1">
          <mxGeometry x="105" y="1760" width="120" height="60" as="geometry" />
        </mxCell>
        <mxCell id="HygxTOMGA-l27CwLSRFN-65" value="numero2" style="whiteSpace=wrap;html=1;aspect=fixed;" parent="1" vertex="1">
          <mxGeometry x="125" y="2110" width="80" height="80" as="geometry" />
        </mxCell>
        <mxCell id="HygxTOMGA-l27CwLSRFN-66" value="" style="shape=flexArrow;endArrow=classic;html=1;rounded=0;" parent="1" edge="1">
          <mxGeometry width="50" height="50" relative="1" as="geometry">
            <mxPoint x="164.5" y="1950" as="sourcePoint" />
            <mxPoint x="164.5" y="2000" as="targetPoint" />
            <Array as="points">
              <mxPoint x="164.5" y="1960" />
            </Array>
          </mxGeometry>
        </mxCell>
        <mxCell id="HygxTOMGA-l27CwLSRFN-67" value="" style="shape=dataStorage;whiteSpace=wrap;html=1;fixedSize=1;" parent="1" vertex="1">
          <mxGeometry x="110" y="2380" width="100" height="80" as="geometry" />
        </mxCell>
        <mxCell id="HygxTOMGA-l27CwLSRFN-68" value="" style="shape=flexArrow;endArrow=classic;html=1;rounded=0;" parent="1" edge="1">
          <mxGeometry width="50" height="50" relative="1" as="geometry">
            <mxPoint x="164.5" y="2460" as="sourcePoint" />
            <mxPoint x="164.5" y="2510" as="targetPoint" />
            <Array as="points">
              <mxPoint x="164.5" y="2470" />
            </Array>
          </mxGeometry>
        </mxCell>
        <mxCell id="HygxTOMGA-l27CwLSRFN-69" value="fim" style="ellipse;whiteSpace=wrap;html=1;" parent="1" vertex="1">
          <mxGeometry x="105" y="2510" width="120" height="80" as="geometry" />
        </mxCell>
        <mxCell id="HygxTOMGA-l27CwLSRFN-70" value="soma" style="whiteSpace=wrap;html=1;aspect=fixed;" parent="1" vertex="1">
          <mxGeometry x="135" y="2395" width="50" height="50" as="geometry" />
        </mxCell>
        <mxCell id="HygxTOMGA-l27CwLSRFN-71" value="170" style="shape=parallelogram;perimeter=parallelogramPerimeter;whiteSpace=wrap;html=1;fixedSize=1;" parent="1" vertex="1">
          <mxGeometry x="105" y="2000" width="120" height="60" as="geometry" />
        </mxCell>
        <mxCell id="HygxTOMGA-l27CwLSRFN-72" value="" style="shape=flexArrow;endArrow=classic;html=1;rounded=0;" parent="1" edge="1">
          <mxGeometry width="50" height="50" relative="1" as="geometry">
            <mxPoint x="164.33000000000004" y="2060" as="sourcePoint" />
            <mxPoint x="164.33000000000004" y="2110" as="targetPoint" />
            <Array as="points">
              <mxPoint x="164.33000000000004" y="2070" />
            </Array>
          </mxGeometry>
        </mxCell>
        <mxCell id="HygxTOMGA-l27CwLSRFN-73" value="" style="shape=flexArrow;endArrow=classic;html=1;rounded=0;" parent="1" edge="1">
          <mxGeometry width="50" height="50" relative="1" as="geometry">
            <mxPoint x="164.33000000000004" y="2330" as="sourcePoint" />
            <mxPoint x="164.33000000000004" y="2380" as="targetPoint" />
            <Array as="points">
              <mxPoint x="164.33000000000004" y="2340" />
            </Array>
          </mxGeometry>
        </mxCell>
        <mxCell id="HygxTOMGA-l27CwLSRFN-76" value="" style="shape=flexArrow;endArrow=classic;html=1;rounded=0;" parent="1" target="HygxTOMGA-l27CwLSRFN-77" edge="1">
          <mxGeometry width="50" height="50" relative="1" as="geometry">
            <mxPoint x="164.5" y="1820" as="sourcePoint" />
            <mxPoint x="164.5" y="1870" as="targetPoint" />
            <Array as="points" />
          </mxGeometry>
        </mxCell>
        <mxCell id="HygxTOMGA-l27CwLSRFN-77" value="numero1" style="whiteSpace=wrap;html=1;aspect=fixed;" parent="1" vertex="1">
          <mxGeometry x="120" y="1870" width="80" height="80" as="geometry" />
        </mxCell>
        <mxCell id="HygxTOMGA-l27CwLSRFN-78" value="" style="shape=flexArrow;endArrow=classic;html=1;rounded=0;" parent="1" edge="1">
          <mxGeometry width="50" height="50" relative="1" as="geometry">
            <mxPoint x="164.33000000000004" y="2190" as="sourcePoint" />
            <mxPoint x="164.33000000000004" y="2250" as="targetPoint" />
          </mxGeometry>
        </mxCell>
        <mxCell id="HygxTOMGA-l27CwLSRFN-79" value="soma &amp;lt;- numero1 + numero2" style="rounded=0;whiteSpace=wrap;html=1;" parent="1" vertex="1">
          <mxGeometry x="50" y="2245" width="230" height="80" as="geometry" />
        </mxCell>
        <mxCell id="HygxTOMGA-l27CwLSRFN-80" value="soma" style="whiteSpace=wrap;html=1;aspect=fixed;" parent="1" vertex="1">
          <mxGeometry x="65" y="2260" width="50" height="50" as="geometry" />
        </mxCell>
        <mxCell id="HygxTOMGA-l27CwLSRFN-81" value="numero1" style="whiteSpace=wrap;html=1;aspect=fixed;" parent="1" vertex="1">
          <mxGeometry x="130" y="2260" width="50" height="50" as="geometry" />
        </mxCell>
        <mxCell id="HygxTOMGA-l27CwLSRFN-82" value="numero2" style="whiteSpace=wrap;html=1;aspect=fixed;" parent="1" vertex="1">
          <mxGeometry x="195" y="2260" width="50" height="50" as="geometry" />
        </mxCell>
        <mxCell id="HygxTOMGA-l27CwLSRFN-83" value="&lt;font size=&quot;3&quot;&gt;início&lt;/font&gt;" style="ellipse;whiteSpace=wrap;html=1;" parent="1" vertex="1">
          <mxGeometry x="555" y="1630" width="120" height="80" as="geometry" />
        </mxCell>
        <mxCell id="HygxTOMGA-l27CwLSRFN-84" value="" style="shape=flexArrow;endArrow=classic;html=1;rounded=0;" parent="1" edge="1">
          <mxGeometry width="50" height="50" relative="1" as="geometry">
            <mxPoint x="614.5" y="1710" as="sourcePoint" />
            <mxPoint x="614.5" y="1760" as="targetPoint" />
            <Array as="points">
              <mxPoint x="614.5" y="1720" />
            </Array>
          </mxGeometry>
        </mxCell>
        <mxCell id="HygxTOMGA-l27CwLSRFN-85" value="75" style="shape=parallelogram;perimeter=parallelogramPerimeter;whiteSpace=wrap;html=1;fixedSize=1;" parent="1" vertex="1">
          <mxGeometry x="555" y="1760" width="120" height="60" as="geometry" />
        </mxCell>
        <mxCell id="HygxTOMGA-l27CwLSRFN-86" value="altura" style="whiteSpace=wrap;html=1;aspect=fixed;" parent="1" vertex="1">
          <mxGeometry x="575" y="2110" width="80" height="80" as="geometry" />
        </mxCell>
        <mxCell id="HygxTOMGA-l27CwLSRFN-87" value="" style="shape=flexArrow;endArrow=classic;html=1;rounded=0;" parent="1" edge="1">
          <mxGeometry width="50" height="50" relative="1" as="geometry">
            <mxPoint x="614.5" y="1950" as="sourcePoint" />
            <mxPoint x="614.5" y="2000" as="targetPoint" />
            <Array as="points">
              <mxPoint x="614.5" y="1960" />
            </Array>
          </mxGeometry>
        </mxCell>
        <mxCell id="HygxTOMGA-l27CwLSRFN-88" value="" style="shape=dataStorage;whiteSpace=wrap;html=1;fixedSize=1;" parent="1" vertex="1">
          <mxGeometry x="560" y="2380" width="100" height="80" as="geometry" />
        </mxCell>
        <mxCell id="HygxTOMGA-l27CwLSRFN-89" value="" style="shape=flexArrow;endArrow=classic;html=1;rounded=0;" parent="1" edge="1">
          <mxGeometry width="50" height="50" relative="1" as="geometry">
            <mxPoint x="614.5" y="2460" as="sourcePoint" />
            <mxPoint x="614.5" y="2510" as="targetPoint" />
            <Array as="points">
              <mxPoint x="614.5" y="2470" />
            </Array>
          </mxGeometry>
        </mxCell>
        <mxCell id="HygxTOMGA-l27CwLSRFN-90" value="fim" style="ellipse;whiteSpace=wrap;html=1;" parent="1" vertex="1">
          <mxGeometry x="555" y="2510" width="120" height="80" as="geometry" />
        </mxCell>
        <mxCell id="HygxTOMGA-l27CwLSRFN-91" value="area" style="whiteSpace=wrap;html=1;aspect=fixed;" parent="1" vertex="1">
          <mxGeometry x="585" y="2395" width="50" height="50" as="geometry" />
        </mxCell>
        <mxCell id="HygxTOMGA-l27CwLSRFN-92" value="170" style="shape=parallelogram;perimeter=parallelogramPerimeter;whiteSpace=wrap;html=1;fixedSize=1;" parent="1" vertex="1">
          <mxGeometry x="555" y="2000" width="120" height="60" as="geometry" />
        </mxCell>
        <mxCell id="HygxTOMGA-l27CwLSRFN-93" value="" style="shape=flexArrow;endArrow=classic;html=1;rounded=0;" parent="1" edge="1">
          <mxGeometry width="50" height="50" relative="1" as="geometry">
            <mxPoint x="614.33" y="2060" as="sourcePoint" />
            <mxPoint x="614.33" y="2110" as="targetPoint" />
            <Array as="points">
              <mxPoint x="614.33" y="2070" />
            </Array>
          </mxGeometry>
        </mxCell>
        <mxCell id="HygxTOMGA-l27CwLSRFN-94" value="" style="shape=flexArrow;endArrow=classic;html=1;rounded=0;" parent="1" edge="1">
          <mxGeometry width="50" height="50" relative="1" as="geometry">
            <mxPoint x="614.33" y="2330" as="sourcePoint" />
            <mxPoint x="614.33" y="2380" as="targetPoint" />
            <Array as="points">
              <mxPoint x="614.33" y="2340" />
            </Array>
          </mxGeometry>
        </mxCell>
        <mxCell id="HygxTOMGA-l27CwLSRFN-95" value="" style="shape=flexArrow;endArrow=classic;html=1;rounded=0;" parent="1" target="HygxTOMGA-l27CwLSRFN-96" edge="1">
          <mxGeometry width="50" height="50" relative="1" as="geometry">
            <mxPoint x="614.5" y="1820" as="sourcePoint" />
            <mxPoint x="614.5" y="1870" as="targetPoint" />
            <Array as="points" />
          </mxGeometry>
        </mxCell>
        <mxCell id="HygxTOMGA-l27CwLSRFN-96" value="base" style="whiteSpace=wrap;html=1;aspect=fixed;" parent="1" vertex="1">
          <mxGeometry x="570" y="1870" width="80" height="80" as="geometry" />
        </mxCell>
        <mxCell id="HygxTOMGA-l27CwLSRFN-97" value="" style="shape=flexArrow;endArrow=classic;html=1;rounded=0;" parent="1" edge="1">
          <mxGeometry width="50" height="50" relative="1" as="geometry">
            <mxPoint x="614.33" y="2190" as="sourcePoint" />
            <mxPoint x="614.33" y="2250" as="targetPoint" />
          </mxGeometry>
        </mxCell>
        <mxCell id="HygxTOMGA-l27CwLSRFN-98" value="soma &amp;lt;- numero1 + numero2" style="rounded=0;whiteSpace=wrap;html=1;" parent="1" vertex="1">
          <mxGeometry x="500" y="2245" width="230" height="80" as="geometry" />
        </mxCell>
        <mxCell id="HygxTOMGA-l27CwLSRFN-99" value="area" style="whiteSpace=wrap;html=1;aspect=fixed;" parent="1" vertex="1">
          <mxGeometry x="515" y="2260" width="50" height="50" as="geometry" />
        </mxCell>
        <mxCell id="HygxTOMGA-l27CwLSRFN-100" value="base" style="whiteSpace=wrap;html=1;aspect=fixed;" parent="1" vertex="1">
          <mxGeometry x="580" y="2260" width="50" height="50" as="geometry" />
        </mxCell>
        <mxCell id="HygxTOMGA-l27CwLSRFN-101" value="altura" style="whiteSpace=wrap;html=1;aspect=fixed;" parent="1" vertex="1">
          <mxGeometry x="645" y="2260" width="50" height="50" as="geometry" />
        </mxCell>
        <mxCell id="j0sWOrv8RblTwBq7Di3Q-1" value="&lt;font size=&quot;3&quot;&gt;início&lt;/font&gt;" style="ellipse;whiteSpace=wrap;html=1;" parent="1" vertex="1">
          <mxGeometry x="365" y="2640" width="120" height="80" as="geometry" />
        </mxCell>
        <mxCell id="j0sWOrv8RblTwBq7Di3Q-2" value="" style="shape=flexArrow;endArrow=classic;html=1;rounded=0;" parent="1" edge="1">
          <mxGeometry width="50" height="50" relative="1" as="geometry">
            <mxPoint x="424.5" y="2720" as="sourcePoint" />
            <mxPoint x="424.5" y="2770" as="targetPoint" />
            <Array as="points">
              <mxPoint x="424.5" y="2730" />
            </Array>
          </mxGeometry>
        </mxCell>
        <mxCell id="j0sWOrv8RblTwBq7Di3Q-3" value="75" style="shape=parallelogram;perimeter=parallelogramPerimeter;whiteSpace=wrap;html=1;fixedSize=1;" parent="1" vertex="1">
          <mxGeometry x="365" y="2770" width="120" height="60" as="geometry" />
        </mxCell>
        <mxCell id="j0sWOrv8RblTwBq7Di3Q-4" value="valor" style="whiteSpace=wrap;html=1;aspect=fixed;" parent="1" vertex="1">
          <mxGeometry x="385" y="3120" width="80" height="80" as="geometry" />
        </mxCell>
        <mxCell id="j0sWOrv8RblTwBq7Di3Q-5" value="" style="shape=flexArrow;endArrow=classic;html=1;rounded=0;" parent="1" edge="1">
          <mxGeometry width="50" height="50" relative="1" as="geometry">
            <mxPoint x="424.5" y="2960" as="sourcePoint" />
            <mxPoint x="424.5" y="3010" as="targetPoint" />
            <Array as="points">
              <mxPoint x="424.5" y="2970" />
            </Array>
          </mxGeometry>
        </mxCell>
        <mxCell id="j0sWOrv8RblTwBq7Di3Q-31" style="edgeStyle=orthogonalEdgeStyle;rounded=0;orthogonalLoop=1;jettySize=auto;html=1;exitX=0.5;exitY=1;exitDx=0;exitDy=0;" parent="1" source="j0sWOrv8RblTwBq7Di3Q-6" edge="1">
          <mxGeometry relative="1" as="geometry">
            <mxPoint x="420" y="3740" as="targetPoint" />
          </mxGeometry>
        </mxCell>
        <mxCell id="j0sWOrv8RblTwBq7Di3Q-6" value="&quot;reprovado&quot;&amp;nbsp; &amp;nbsp;&amp;nbsp;&lt;span style=&quot;color: rgba(0, 0, 0, 0); font-family: monospace; font-size: 0px; text-align: start; text-wrap: nowrap;&quot;&gt;%3CmxGraphModel%3E%3Croot%3E%3CmxCell%20id%3D%220%22%2F%3E%3CmxCell%20id%3D%221%22%20parent%3D%220%22%2F%3E%3CmxCell%20id%3D%222%22%20value%3D%22%22%20style%3D%22shape%3DflexArrow%3BendArrow%3Dclassic%3Bhtml%3D1%3Brounded%3D0%3B%22%20edge%3D%221%22%20parent%3D%221%22%3E%3CmxGeometry%20width%3D%2250%22%20height%3D%2250%22%20relative%3D%221%22%20as%3D%22geometry%22%3E%3CmxPoint%20x%3D%22424.33000000000004%22%20y%3D%223740%22%20as%3D%22sourcePoint%22%2F%3E%3CmxPoint%20x%3D%22424.33000000000004%22%20y%3D%223790%22%20as%3D%22targetPoint%22%2F%3E%3CArray%20as%3D%22points%22%3E%3CmxPoint%20x%3D%22424.33000000000004%22%20y%3D%223750%22%2F%3E%3C%2FArray%3E%3C%2FmxGeometry%3E%3C%2FmxCell%3E%3C%2Froot%3E%3C%2FmxGraphModel%3E&lt;/span&gt;" style="shape=dataStorage;whiteSpace=wrap;html=1;fixedSize=1;" parent="1" vertex="1">
          <mxGeometry x="60" y="3540" width="100" height="80" as="geometry" />
        </mxCell>
        <mxCell id="j0sWOrv8RblTwBq7Di3Q-7" value="" style="shape=flexArrow;endArrow=classic;html=1;rounded=0;" parent="1" edge="1">
          <mxGeometry width="50" height="50" relative="1" as="geometry">
            <mxPoint x="424.5" y="3770" as="sourcePoint" />
            <mxPoint x="424.5" y="3820" as="targetPoint" />
            <Array as="points">
              <mxPoint x="424.5" y="3780" />
            </Array>
          </mxGeometry>
        </mxCell>
        <mxCell id="j0sWOrv8RblTwBq7Di3Q-8" value="fim" style="ellipse;whiteSpace=wrap;html=1;" parent="1" vertex="1">
          <mxGeometry x="365" y="3820" width="120" height="80" as="geometry" />
        </mxCell>
        <mxCell id="j0sWOrv8RblTwBq7Di3Q-10" value="1" style="shape=parallelogram;perimeter=parallelogramPerimeter;whiteSpace=wrap;html=1;fixedSize=1;" parent="1" vertex="1">
          <mxGeometry x="365" y="3010" width="120" height="60" as="geometry" />
        </mxCell>
        <mxCell id="j0sWOrv8RblTwBq7Di3Q-11" value="" style="shape=flexArrow;endArrow=classic;html=1;rounded=0;" parent="1" edge="1">
          <mxGeometry width="50" height="50" relative="1" as="geometry">
            <mxPoint x="424.33000000000004" y="3070" as="sourcePoint" />
            <mxPoint x="424.33000000000004" y="3120" as="targetPoint" />
            <Array as="points">
              <mxPoint x="424.33000000000004" y="3080" />
            </Array>
          </mxGeometry>
        </mxCell>
        <mxCell id="j0sWOrv8RblTwBq7Di3Q-13" value="" style="shape=flexArrow;endArrow=classic;html=1;rounded=0;" parent="1" target="j0sWOrv8RblTwBq7Di3Q-14" edge="1">
          <mxGeometry width="50" height="50" relative="1" as="geometry">
            <mxPoint x="424.5" y="2830" as="sourcePoint" />
            <mxPoint x="424.5" y="2880" as="targetPoint" />
            <Array as="points" />
          </mxGeometry>
        </mxCell>
        <mxCell id="j0sWOrv8RblTwBq7Di3Q-14" value="qtdd" style="whiteSpace=wrap;html=1;aspect=fixed;" parent="1" vertex="1">
          <mxGeometry x="380" y="2880" width="80" height="80" as="geometry" />
        </mxCell>
        <mxCell id="j0sWOrv8RblTwBq7Di3Q-15" value="" style="shape=flexArrow;endArrow=classic;html=1;rounded=0;" parent="1" edge="1">
          <mxGeometry width="50" height="50" relative="1" as="geometry">
            <mxPoint x="424.33000000000004" y="3200" as="sourcePoint" />
            <mxPoint x="424.33000000000004" y="3260" as="targetPoint" />
          </mxGeometry>
        </mxCell>
        <mxCell id="j0sWOrv8RblTwBq7Di3Q-16" value="&amp;lt;-&amp;nbsp; &amp;nbsp; &amp;nbsp; &amp;nbsp; &amp;nbsp; &amp;nbsp; &amp;nbsp; &amp;nbsp; &amp;nbsp;*&amp;nbsp; &amp;nbsp; &amp;nbsp;&amp;nbsp;" style="rounded=0;whiteSpace=wrap;html=1;" parent="1" vertex="1">
          <mxGeometry x="310" y="3255" width="230" height="80" as="geometry" />
        </mxCell>
        <mxCell id="j0sWOrv8RblTwBq7Di3Q-17" value="total" style="whiteSpace=wrap;html=1;aspect=fixed;" parent="1" vertex="1">
          <mxGeometry x="325" y="3270" width="50" height="50" as="geometry" />
        </mxCell>
        <mxCell id="j0sWOrv8RblTwBq7Di3Q-18" value="qtdd" style="whiteSpace=wrap;html=1;aspect=fixed;" parent="1" vertex="1">
          <mxGeometry x="390" y="3270" width="50" height="50" as="geometry" />
        </mxCell>
        <mxCell id="j0sWOrv8RblTwBq7Di3Q-19" value="valor" style="whiteSpace=wrap;html=1;aspect=fixed;" parent="1" vertex="1">
          <mxGeometry x="455" y="3270" width="50" height="50" as="geometry" />
        </mxCell>
        <mxCell id="j0sWOrv8RblTwBq7Di3Q-20" value="" style="shape=flexArrow;endArrow=classic;html=1;rounded=0;" parent="1" target="j0sWOrv8RblTwBq7Di3Q-21" edge="1">
          <mxGeometry width="50" height="50" relative="1" as="geometry">
            <mxPoint x="425.00000000000006" y="3335" as="sourcePoint" />
            <mxPoint x="425.00000000000006" y="3385" as="targetPoint" />
            <Array as="points">
              <mxPoint x="425.00000000000006" y="3345" />
            </Array>
          </mxGeometry>
        </mxCell>
        <mxCell id="j0sWOrv8RblTwBq7Di3Q-25" style="edgeStyle=orthogonalEdgeStyle;rounded=0;orthogonalLoop=1;jettySize=auto;html=1;exitX=0;exitY=0.5;exitDx=0;exitDy=0;" parent="1" source="j0sWOrv8RblTwBq7Di3Q-21" edge="1">
          <mxGeometry relative="1" as="geometry">
            <mxPoint x="110" y="3540" as="targetPoint" />
          </mxGeometry>
        </mxCell>
        <mxCell id="j0sWOrv8RblTwBq7Di3Q-26" style="edgeStyle=orthogonalEdgeStyle;rounded=0;orthogonalLoop=1;jettySize=auto;html=1;exitX=1;exitY=0.5;exitDx=0;exitDy=0;" parent="1" source="j0sWOrv8RblTwBq7Di3Q-21" edge="1">
          <mxGeometry relative="1" as="geometry">
            <mxPoint x="720" y="3540" as="targetPoint" />
          </mxGeometry>
        </mxCell>
        <mxCell id="j0sWOrv8RblTwBq7Di3Q-21" value="&amp;gt;&amp;nbsp; 1250" style="rhombus;whiteSpace=wrap;html=1;" parent="1" vertex="1">
          <mxGeometry x="270" y="3390" width="310" height="120" as="geometry" />
        </mxCell>
        <mxCell id="j0sWOrv8RblTwBq7Di3Q-22" value="total" style="whiteSpace=wrap;html=1;aspect=fixed;" parent="1" vertex="1">
          <mxGeometry x="345" y="3425" width="50" height="50" as="geometry" />
        </mxCell>
        <mxCell id="j0sWOrv8RblTwBq7Di3Q-32" style="edgeStyle=orthogonalEdgeStyle;rounded=0;orthogonalLoop=1;jettySize=auto;html=1;exitX=0.5;exitY=1;exitDx=0;exitDy=0;" parent="1" source="j0sWOrv8RblTwBq7Di3Q-35" edge="1">
          <mxGeometry relative="1" as="geometry">
            <mxPoint x="430" y="3740" as="targetPoint" />
          </mxGeometry>
        </mxCell>
        <mxCell id="j0sWOrv8RblTwBq7Di3Q-27" value="&quot;aprovado&quot;&amp;nbsp; &amp;nbsp;" style="shape=dataStorage;whiteSpace=wrap;html=1;fixedSize=1;" parent="1" vertex="1">
          <mxGeometry x="670" y="3540" width="100" height="80" as="geometry" />
        </mxCell>
        <mxCell id="j0sWOrv8RblTwBq7Di3Q-28" value="V" style="text;html=1;align=center;verticalAlign=middle;whiteSpace=wrap;rounded=0;" parent="1" vertex="1">
          <mxGeometry x="90" y="3420" width="60" height="30" as="geometry" />
        </mxCell>
        <mxCell id="j0sWOrv8RblTwBq7Di3Q-29" value="F" style="text;html=1;align=center;verticalAlign=middle;whiteSpace=wrap;rounded=0;" parent="1" vertex="1">
          <mxGeometry x="675" y="3420" width="60" height="30" as="geometry" />
        </mxCell>
        <mxCell id="j0sWOrv8RblTwBq7Di3Q-36" value="" style="edgeStyle=orthogonalEdgeStyle;rounded=0;orthogonalLoop=1;jettySize=auto;html=1;exitX=0.5;exitY=1;exitDx=0;exitDy=0;" parent="1" source="j0sWOrv8RblTwBq7Di3Q-27" target="j0sWOrv8RblTwBq7Di3Q-35" edge="1">
          <mxGeometry relative="1" as="geometry">
            <mxPoint x="430" y="3740" as="targetPoint" />
            <mxPoint x="720" y="3620" as="sourcePoint" />
            <Array as="points">
              <mxPoint x="720" y="3680" />
              <mxPoint x="425" y="3680" />
            </Array>
          </mxGeometry>
        </mxCell>
        <mxCell id="j0sWOrv8RblTwBq7Di3Q-35" value="" style="ellipse;whiteSpace=wrap;html=1;aspect=fixed;" parent="1" vertex="1">
          <mxGeometry x="385" y="3690" width="80" height="80" as="geometry" />
        </mxCell>
        <mxCell id="j0sWOrv8RblTwBq7Di3Q-38" value="&lt;font size=&quot;3&quot;&gt;início&lt;/font&gt;" style="ellipse;whiteSpace=wrap;html=1;" parent="1" vertex="1">
          <mxGeometry x="385" y="3980" width="120" height="80" as="geometry" />
        </mxCell>
        <mxCell id="j0sWOrv8RblTwBq7Di3Q-39" value="" style="shape=flexArrow;endArrow=classic;html=1;rounded=0;" parent="1" edge="1">
          <mxGeometry width="50" height="50" relative="1" as="geometry">
            <mxPoint x="444.5" y="4060" as="sourcePoint" />
            <mxPoint x="444.5" y="4110" as="targetPoint" />
            <Array as="points">
              <mxPoint x="444.5" y="4070" />
            </Array>
          </mxGeometry>
        </mxCell>
        <mxCell id="j0sWOrv8RblTwBq7Di3Q-40" value="75" style="shape=parallelogram;perimeter=parallelogramPerimeter;whiteSpace=wrap;html=1;fixedSize=1;" parent="1" vertex="1">
          <mxGeometry x="385" y="4110" width="120" height="60" as="geometry" />
        </mxCell>
        <mxCell id="j0sWOrv8RblTwBq7Di3Q-41" value="pgto" style="whiteSpace=wrap;html=1;aspect=fixed;" parent="1" vertex="1">
          <mxGeometry x="405" y="4460" width="80" height="80" as="geometry" />
        </mxCell>
        <mxCell id="j0sWOrv8RblTwBq7Di3Q-42" value="" style="shape=flexArrow;endArrow=classic;html=1;rounded=0;" parent="1" edge="1">
          <mxGeometry width="50" height="50" relative="1" as="geometry">
            <mxPoint x="444.5" y="4300" as="sourcePoint" />
            <mxPoint x="444.5" y="4350" as="targetPoint" />
            <Array as="points">
              <mxPoint x="444.5" y="4310" />
            </Array>
          </mxGeometry>
        </mxCell>
        <mxCell id="j0sWOrv8RblTwBq7Di3Q-44" value="" style="shape=dataStorage;whiteSpace=wrap;html=1;fixedSize=1;" parent="1" vertex="1">
          <mxGeometry x="397.5" y="5040" width="100" height="80" as="geometry" />
        </mxCell>
        <mxCell id="j0sWOrv8RblTwBq7Di3Q-45" value="" style="shape=flexArrow;endArrow=classic;html=1;rounded=0;" parent="1" edge="1">
          <mxGeometry width="50" height="50" relative="1" as="geometry">
            <mxPoint x="447" y="5120" as="sourcePoint" />
            <mxPoint x="447" y="5170" as="targetPoint" />
            <Array as="points">
              <mxPoint x="447" y="5130" />
            </Array>
          </mxGeometry>
        </mxCell>
        <mxCell id="j0sWOrv8RblTwBq7Di3Q-46" value="fim" style="ellipse;whiteSpace=wrap;html=1;" parent="1" vertex="1">
          <mxGeometry x="387.5" y="5170" width="120" height="80" as="geometry" />
        </mxCell>
        <mxCell id="j0sWOrv8RblTwBq7Di3Q-47" value="&quot;a vista&quot;" style="shape=parallelogram;perimeter=parallelogramPerimeter;whiteSpace=wrap;html=1;fixedSize=1;" parent="1" vertex="1">
          <mxGeometry x="385" y="4350" width="120" height="60" as="geometry" />
        </mxCell>
        <mxCell id="j0sWOrv8RblTwBq7Di3Q-48" value="" style="shape=flexArrow;endArrow=classic;html=1;rounded=0;" parent="1" edge="1">
          <mxGeometry width="50" height="50" relative="1" as="geometry">
            <mxPoint x="444.33000000000004" y="4410" as="sourcePoint" />
            <mxPoint x="444.33000000000004" y="4460" as="targetPoint" />
            <Array as="points">
              <mxPoint x="444.33000000000004" y="4420" />
            </Array>
          </mxGeometry>
        </mxCell>
        <mxCell id="j0sWOrv8RblTwBq7Di3Q-49" value="" style="shape=flexArrow;endArrow=classic;html=1;rounded=0;" parent="1" target="j0sWOrv8RblTwBq7Di3Q-50" edge="1">
          <mxGeometry width="50" height="50" relative="1" as="geometry">
            <mxPoint x="444.5" y="4170" as="sourcePoint" />
            <mxPoint x="444.5" y="4220" as="targetPoint" />
            <Array as="points" />
          </mxGeometry>
        </mxCell>
        <mxCell id="j0sWOrv8RblTwBq7Di3Q-50" value="valor" style="whiteSpace=wrap;html=1;aspect=fixed;" parent="1" vertex="1">
          <mxGeometry x="400" y="4220" width="80" height="80" as="geometry" />
        </mxCell>
        <mxCell id="j0sWOrv8RblTwBq7Di3Q-51" value="" style="shape=flexArrow;endArrow=classic;html=1;rounded=0;" parent="1" edge="1">
          <mxGeometry width="50" height="50" relative="1" as="geometry">
            <mxPoint x="444.33000000000004" y="4540" as="sourcePoint" />
            <mxPoint x="444.33000000000004" y="4600" as="targetPoint" />
          </mxGeometry>
        </mxCell>
        <mxCell id="j0sWOrv8RblTwBq7Di3Q-57" style="edgeStyle=orthogonalEdgeStyle;rounded=0;orthogonalLoop=1;jettySize=auto;html=1;exitX=0;exitY=0.5;exitDx=0;exitDy=0;" parent="1" source="j0sWOrv8RblTwBq7Di3Q-59" edge="1">
          <mxGeometry relative="1" as="geometry">
            <mxPoint x="130" y="4750" as="targetPoint" />
          </mxGeometry>
        </mxCell>
        <mxCell id="j0sWOrv8RblTwBq7Di3Q-58" style="edgeStyle=orthogonalEdgeStyle;rounded=0;orthogonalLoop=1;jettySize=auto;html=1;exitX=1;exitY=0.5;exitDx=0;exitDy=0;" parent="1" source="j0sWOrv8RblTwBq7Di3Q-59" edge="1">
          <mxGeometry relative="1" as="geometry">
            <mxPoint x="740" y="4750" as="targetPoint" />
          </mxGeometry>
        </mxCell>
        <mxCell id="j0sWOrv8RblTwBq7Di3Q-59" value="&amp;nbsp; &amp;nbsp;=&amp;nbsp; &quot;a vista&quot;" style="rhombus;whiteSpace=wrap;html=1;" parent="1" vertex="1">
          <mxGeometry x="290" y="4600" width="310" height="120" as="geometry" />
        </mxCell>
        <mxCell id="j0sWOrv8RblTwBq7Di3Q-60" value="pgto" style="whiteSpace=wrap;html=1;aspect=fixed;" parent="1" vertex="1">
          <mxGeometry x="365" y="4635" width="50" height="50" as="geometry" />
        </mxCell>
        <mxCell id="j0sWOrv8RblTwBq7Di3Q-61" style="edgeStyle=orthogonalEdgeStyle;rounded=0;orthogonalLoop=1;jettySize=auto;html=1;exitX=0.5;exitY=1;exitDx=0;exitDy=0;" parent="1" source="j0sWOrv8RblTwBq7Di3Q-66" edge="1">
          <mxGeometry relative="1" as="geometry">
            <mxPoint x="452.5" y="4950" as="targetPoint" />
          </mxGeometry>
        </mxCell>
        <mxCell id="j0sWOrv8RblTwBq7Di3Q-63" value="V" style="text;html=1;align=center;verticalAlign=middle;whiteSpace=wrap;rounded=0;" parent="1" vertex="1">
          <mxGeometry x="110" y="4630" width="60" height="30" as="geometry" />
        </mxCell>
        <mxCell id="j0sWOrv8RblTwBq7Di3Q-64" value="F" style="text;html=1;align=center;verticalAlign=middle;whiteSpace=wrap;rounded=0;" parent="1" vertex="1">
          <mxGeometry x="695" y="4630" width="60" height="30" as="geometry" />
        </mxCell>
        <mxCell id="j0sWOrv8RblTwBq7Di3Q-67" value="&amp;nbsp; &amp;nbsp; &amp;nbsp; &amp;nbsp; &amp;nbsp; &amp;nbsp; &amp;nbsp; &amp;lt;-&amp;nbsp; &amp;nbsp; &amp;nbsp; &amp;nbsp; &amp;nbsp; &amp;nbsp; &amp;nbsp; &amp;nbsp; *&amp;nbsp; 0.9" style="rounded=0;whiteSpace=wrap;html=1;" parent="1" vertex="1">
          <mxGeometry x="40" y="4750" width="170" height="80" as="geometry" />
        </mxCell>
        <mxCell id="j0sWOrv8RblTwBq7Di3Q-68" value="final" style="whiteSpace=wrap;html=1;aspect=fixed;" parent="1" vertex="1">
          <mxGeometry x="49" y="4765" width="50" height="50" as="geometry" />
        </mxCell>
        <mxCell id="j0sWOrv8RblTwBq7Di3Q-69" value="valor" style="whiteSpace=wrap;html=1;aspect=fixed;" parent="1" vertex="1">
          <mxGeometry x="114" y="4765" width="50" height="50" as="geometry" />
        </mxCell>
        <mxCell id="j0sWOrv8RblTwBq7Di3Q-81" style="edgeStyle=orthogonalEdgeStyle;rounded=0;orthogonalLoop=1;jettySize=auto;html=1;exitX=0.5;exitY=1;exitDx=0;exitDy=0;" parent="1" source="j0sWOrv8RblTwBq7Di3Q-72" edge="1">
          <mxGeometry relative="1" as="geometry">
            <mxPoint x="440" y="5030" as="targetPoint" />
          </mxGeometry>
        </mxCell>
        <mxCell id="j0sWOrv8RblTwBq7Di3Q-72" value="&amp;nbsp; &amp;nbsp; &amp;nbsp; &amp;nbsp; &amp;nbsp; &amp;nbsp; &amp;nbsp; &amp;nbsp;&amp;lt;-&amp;nbsp; &amp;nbsp; &amp;nbsp; &amp;nbsp; &amp;nbsp; &amp;nbsp; &amp;nbsp; &amp;nbsp; &amp;nbsp;*&amp;nbsp; 1.12" style="rounded=0;whiteSpace=wrap;html=1;" parent="1" vertex="1">
          <mxGeometry x="655" y="4750" width="170" height="80" as="geometry" />
        </mxCell>
        <mxCell id="j0sWOrv8RblTwBq7Di3Q-73" value="final" style="whiteSpace=wrap;html=1;aspect=fixed;" parent="1" vertex="1">
          <mxGeometry x="664" y="4765" width="50" height="50" as="geometry" />
        </mxCell>
        <mxCell id="j0sWOrv8RblTwBq7Di3Q-74" value="valor" style="whiteSpace=wrap;html=1;aspect=fixed;" parent="1" vertex="1">
          <mxGeometry x="729" y="4765" width="50" height="50" as="geometry" />
        </mxCell>
        <mxCell id="j0sWOrv8RblTwBq7Di3Q-76" value="final" style="whiteSpace=wrap;html=1;aspect=fixed;" parent="1" vertex="1">
          <mxGeometry x="416.5" y="5055" width="50" height="50" as="geometry" />
        </mxCell>
        <mxCell id="j0sWOrv8RblTwBq7Di3Q-66" value="" style="ellipse;whiteSpace=wrap;html=1;aspect=fixed;" parent="1" vertex="1">
          <mxGeometry x="407.5" y="4900" width="80" height="80" as="geometry" />
        </mxCell>
        <mxCell id="j0sWOrv8RblTwBq7Di3Q-71" value="" style="shape=flexArrow;endArrow=classic;html=1;rounded=0;" parent="1" edge="1">
          <mxGeometry width="50" height="50" relative="1" as="geometry">
            <mxPoint x="446.50000000000006" y="4980" as="sourcePoint" />
            <mxPoint x="446.5" y="5035" as="targetPoint" />
            <Array as="points">
              <mxPoint x="446.50000000000006" y="4990" />
            </Array>
          </mxGeometry>
        </mxCell>
        <mxCell id="pJJjCT_8jM6wzj25OI1I-2" value="&lt;font size=&quot;3&quot;&gt;início&lt;/font&gt;" style="ellipse;whiteSpace=wrap;html=1;" parent="1" vertex="1">
          <mxGeometry x="385" y="5320" width="120" height="80" as="geometry" />
        </mxCell>
        <mxCell id="pJJjCT_8jM6wzj25OI1I-3" value="" style="shape=flexArrow;endArrow=classic;html=1;rounded=0;" parent="1" edge="1">
          <mxGeometry width="50" height="50" relative="1" as="geometry">
            <mxPoint x="444.5" y="5400" as="sourcePoint" />
            <mxPoint x="444.5" y="5450" as="targetPoint" />
            <Array as="points">
              <mxPoint x="444.5" y="5410" />
            </Array>
          </mxGeometry>
        </mxCell>
        <mxCell id="pJJjCT_8jM6wzj25OI1I-4" value="7500" style="shape=parallelogram;perimeter=parallelogramPerimeter;whiteSpace=wrap;html=1;fixedSize=1;" parent="1" vertex="1">
          <mxGeometry x="385" y="5450" width="120" height="60" as="geometry" />
        </mxCell>
        <mxCell id="pJJjCT_8jM6wzj25OI1I-5" value="saldo" style="whiteSpace=wrap;html=1;aspect=fixed;" parent="1" vertex="1">
          <mxGeometry x="405" y="5800" width="80" height="80" as="geometry" />
        </mxCell>
        <mxCell id="pJJjCT_8jM6wzj25OI1I-6" value="" style="shape=flexArrow;endArrow=classic;html=1;rounded=0;" parent="1" edge="1">
          <mxGeometry width="50" height="50" relative="1" as="geometry">
            <mxPoint x="444.5" y="5640" as="sourcePoint" />
            <mxPoint x="444.5" y="5690" as="targetPoint" />
            <Array as="points">
              <mxPoint x="444.5" y="5650" />
            </Array>
          </mxGeometry>
        </mxCell>
        <mxCell id="pJJjCT_8jM6wzj25OI1I-7" value="&quot;Aprovada&quot;&amp;nbsp; &amp;nbsp;&amp;nbsp;" style="shape=dataStorage;whiteSpace=wrap;html=1;fixedSize=1;" parent="1" vertex="1">
          <mxGeometry x="80" y="6090" width="100" height="80" as="geometry" />
        </mxCell>
        <mxCell id="pJJjCT_8jM6wzj25OI1I-9" value="fim" style="ellipse;whiteSpace=wrap;html=1;" parent="1" vertex="1">
          <mxGeometry x="395" y="6850" width="120" height="80" as="geometry" />
        </mxCell>
        <mxCell id="pJJjCT_8jM6wzj25OI1I-10" value="23000" style="shape=parallelogram;perimeter=parallelogramPerimeter;whiteSpace=wrap;html=1;fixedSize=1;" parent="1" vertex="1">
          <mxGeometry x="385" y="5690" width="120" height="60" as="geometry" />
        </mxCell>
        <mxCell id="pJJjCT_8jM6wzj25OI1I-11" value="" style="shape=flexArrow;endArrow=classic;html=1;rounded=0;" parent="1" edge="1">
          <mxGeometry width="50" height="50" relative="1" as="geometry">
            <mxPoint x="444.33000000000004" y="5750" as="sourcePoint" />
            <mxPoint x="444.33000000000004" y="5800" as="targetPoint" />
            <Array as="points">
              <mxPoint x="444.33000000000004" y="5760" />
            </Array>
          </mxGeometry>
        </mxCell>
        <mxCell id="pJJjCT_8jM6wzj25OI1I-12" value="" style="shape=flexArrow;endArrow=classic;html=1;rounded=0;" parent="1" target="pJJjCT_8jM6wzj25OI1I-13" edge="1">
          <mxGeometry width="50" height="50" relative="1" as="geometry">
            <mxPoint x="444.5" y="5510" as="sourcePoint" />
            <mxPoint x="444.5" y="5560" as="targetPoint" />
            <Array as="points" />
          </mxGeometry>
        </mxCell>
        <mxCell id="pJJjCT_8jM6wzj25OI1I-13" value="valor" style="whiteSpace=wrap;html=1;aspect=fixed;" parent="1" vertex="1">
          <mxGeometry x="400" y="5560" width="80" height="80" as="geometry" />
        </mxCell>
        <mxCell id="pJJjCT_8jM6wzj25OI1I-14" value="" style="shape=flexArrow;endArrow=classic;html=1;rounded=0;" parent="1" edge="1">
          <mxGeometry width="50" height="50" relative="1" as="geometry">
            <mxPoint x="444.33000000000004" y="5880" as="sourcePoint" />
            <mxPoint x="444.33000000000004" y="5940" as="targetPoint" />
          </mxGeometry>
        </mxCell>
        <mxCell id="pJJjCT_8jM6wzj25OI1I-15" style="edgeStyle=orthogonalEdgeStyle;rounded=0;orthogonalLoop=1;jettySize=auto;html=1;exitX=0;exitY=0.5;exitDx=0;exitDy=0;" parent="1" source="pJJjCT_8jM6wzj25OI1I-17" edge="1">
          <mxGeometry relative="1" as="geometry">
            <mxPoint x="130" y="6090" as="targetPoint" />
          </mxGeometry>
        </mxCell>
        <mxCell id="pJJjCT_8jM6wzj25OI1I-16" style="edgeStyle=orthogonalEdgeStyle;rounded=0;orthogonalLoop=1;jettySize=auto;html=1;exitX=1;exitY=0.5;exitDx=0;exitDy=0;" parent="1" source="pJJjCT_8jM6wzj25OI1I-17" edge="1">
          <mxGeometry relative="1" as="geometry">
            <mxPoint x="740" y="6090" as="targetPoint" />
          </mxGeometry>
        </mxCell>
        <mxCell id="pJJjCT_8jM6wzj25OI1I-17" value="&amp;gt;=&amp;nbsp; &amp;nbsp; &amp;nbsp; &amp;nbsp; &amp;nbsp; &amp;nbsp;&amp;nbsp;" style="rhombus;whiteSpace=wrap;html=1;" parent="1" vertex="1">
          <mxGeometry x="290" y="5940" width="310" height="120" as="geometry" />
        </mxCell>
        <mxCell id="pJJjCT_8jM6wzj25OI1I-18" value="saldo&lt;span style=&quot;color: rgba(0, 0, 0, 0); font-family: monospace; font-size: 0px; text-align: start; text-wrap: nowrap;&quot;&gt;%3CmxGraphModel%3E%3Croot%3E%3CmxCell%20id%3D%220%22%2F%3E%3CmxCell%20id%3D%221%22%20parent%3D%220%22%2F%3E%3CmxCell%20id%3D%222%22%20style%3D%22edgeStyle%3DorthogonalEdgeStyle%3Brounded%3D0%3BorthogonalLoop%3D1%3BjettySize%3Dauto%3Bhtml%3D1%3BexitX%3D0.5%3BexitY%3D1%3BexitDx%3D0%3BexitDy%3D0%3B%22%20edge%3D%221%22%20source%3D%2223%22%20parent%3D%221%22%3E%3CmxGeometry%20relative%3D%221%22%20as%3D%22geometry%22%3E%3CmxPoint%20x%3D%22440%22%20y%3D%225030%22%20as%3D%22targetPoint%22%2F%3E%3C%2FmxGeometry%3E%3C%2FmxCell%3E%3CmxCell%20id%3D%223%22%20value%3D%22%26lt%3Bfont%20size%3D%26quot%3B3%26quot%3B%26gt%3Bin%C3%ADcio%26lt%3B%2Ffont%26gt%3B%22%20style%3D%22ellipse%3BwhiteSpace%3Dwrap%3Bhtml%3D1%3B%22%20vertex%3D%221%22%20parent%3D%221%22%3E%3CmxGeometry%20x%3D%22385%22%20y%3D%223980%22%20width%3D%22120%22%20height%3D%2280%22%20as%3D%22geometry%22%2F%3E%3C%2FmxCell%3E%3CmxCell%20id%3D%224%22%20value%3D%22%22%20style%3D%22shape%3DflexArrow%3BendArrow%3Dclassic%3Bhtml%3D1%3Brounded%3D0%3B%22%20edge%3D%221%22%20parent%3D%221%22%3E%3CmxGeometry%20width%3D%2250%22%20height%3D%2250%22%20relative%3D%221%22%20as%3D%22geometry%22%3E%3CmxPoint%20x%3D%22444.5%22%20y%3D%224060%22%20as%3D%22sourcePoint%22%2F%3E%3CmxPoint%20x%3D%22444.5%22%20y%3D%224110%22%20as%3D%22targetPoint%22%2F%3E%3CArray%20as%3D%22points%22%3E%3CmxPoint%20x%3D%22444.5%22%20y%3D%224070%22%2F%3E%3C%2FArray%3E%3C%2FmxGeometry%3E%3C%2FmxCell%3E%3CmxCell%20id%3D%225%22%20value%3D%2275%22%20style%3D%22shape%3Dparallelogram%3Bperimeter%3DparallelogramPerimeter%3BwhiteSpace%3Dwrap%3Bhtml%3D1%3BfixedSize%3D1%3B%22%20vertex%3D%221%22%20parent%3D%221%22%3E%3CmxGeometry%20x%3D%22385%22%20y%3D%224110%22%20width%3D%22120%22%20height%3D%2260%22%20as%3D%22geometry%22%2F%3E%3C%2FmxCell%3E%3CmxCell%20id%3D%226%22%20value%3D%22pgto%22%20style%3D%22whiteSpace%3Dwrap%3Bhtml%3D1%3Baspect%3Dfixed%3B%22%20vertex%3D%221%22%20parent%3D%221%22%3E%3CmxGeometry%20x%3D%22405%22%20y%3D%224460%22%20width%3D%2280%22%20height%3D%2280%22%20as%3D%22geometry%22%2F%3E%3C%2FmxCell%3E%3CmxCell%20id%3D%227%22%20value%3D%22%22%20style%3D%22shape%3DflexArrow%3BendArrow%3Dclassic%3Bhtml%3D1%3Brounded%3D0%3B%22%20edge%3D%221%22%20parent%3D%221%22%3E%3CmxGeometry%20width%3D%2250%22%20height%3D%2250%22%20relative%3D%221%22%20as%3D%22geometry%22%3E%3CmxPoint%20x%3D%22444.5%22%20y%3D%224300%22%20as%3D%22sourcePoint%22%2F%3E%3CmxPoint%20x%3D%22444.5%22%20y%3D%224350%22%20as%3D%22targetPoint%22%2F%3E%3CArray%20as%3D%22points%22%3E%3CmxPoint%20x%3D%22444.5%22%20y%3D%224310%22%2F%3E%3C%2FArray%3E%3C%2FmxGeometry%3E%3C%2FmxCell%3E%3CmxCell%20id%3D%228%22%20value%3D%22%22%20style%3D%22shape%3DdataStorage%3BwhiteSpace%3Dwrap%3Bhtml%3D1%3BfixedSize%3D1%3B%22%20vertex%3D%221%22%20parent%3D%221%22%3E%3CmxGeometry%20x%3D%22397.5%22%20y%3D%225040%22%20width%3D%22100%22%20height%3D%2280%22%20as%3D%22geometry%22%2F%3E%3C%2FmxCell%3E%3CmxCell%20id%3D%229%22%20value%3D%22%22%20style%3D%22shape%3DflexArrow%3BendArrow%3Dclassic%3Bhtml%3D1%3Brounded%3D0%3B%22%20edge%3D%221%22%20parent%3D%221%22%3E%3CmxGeometry%20width%3D%2250%22%20height%3D%2250%22%20relative%3D%221%22%20as%3D%22geometry%22%3E%3CmxPoint%20x%3D%22447%22%20y%3D%225120%22%20as%3D%22sourcePoint%22%2F%3E%3CmxPoint%20x%3D%22447%22%20y%3D%225170%22%20as%3D%22targetPoint%22%2F%3E%3CArray%20as%3D%22points%22%3E%3CmxPoint%20x%3D%22447%22%20y%3D%225130%22%2F%3E%3C%2FArray%3E%3C%2FmxGeometry%3E%3C%2FmxCell%3E%3CmxCell%20id%3D%2210%22%20value%3D%22fim%22%20style%3D%22ellipse%3BwhiteSpace%3Dwrap%3Bhtml%3D1%3B%22%20vertex%3D%221%22%20parent%3D%221%22%3E%3CmxGeometry%20x%3D%22387.5%22%20y%3D%225170%22%20width%3D%22120%22%20height%3D%2280%22%20as%3D%22geometry%22%2F%3E%3C%2FmxCell%3E%3CmxCell%20id%3D%2211%22%20value%3D%22%26quot%3Ba%20vista%26quot%3B%22%20style%3D%22shape%3Dparallelogram%3Bperimeter%3DparallelogramPerimeter%3BwhiteSpace%3Dwrap%3Bhtml%3D1%3BfixedSize%3D1%3B%22%20vertex%3D%221%22%20parent%3D%221%22%3E%3CmxGeometry%20x%3D%22385%22%20y%3D%224350%22%20width%3D%22120%22%20height%3D%2260%22%20as%3D%22geometry%22%2F%3E%3C%2FmxCell%3E%3CmxCell%20id%3D%2212%22%20value%3D%22%22%20style%3D%22shape%3DflexArrow%3BendArrow%3Dclassic%3Bhtml%3D1%3Brounded%3D0%3B%22%20edge%3D%221%22%20parent%3D%221%22%3E%3CmxGeometry%20width%3D%2250%22%20height%3D%2250%22%20relative%3D%221%22%20as%3D%22geometry%22%3E%3CmxPoint%20x%3D%22444.33000000000004%22%20y%3D%224410%22%20as%3D%22sourcePoint%22%2F%3E%3CmxPoint%20x%3D%22444.33000000000004%22%20y%3D%224460%22%20as%3D%22targetPoint%22%2F%3E%3CArray%20as%3D%22points%22%3E%3CmxPoint%20x%3D%22444.33000000000004%22%20y%3D%224420%22%2F%3E%3C%2FArray%3E%3C%2FmxGeometry%3E%3C%2FmxCell%3E%3CmxCell%20id%3D%2213%22%20value%3D%22%22%20style%3D%22shape%3DflexArrow%3BendArrow%3Dclassic%3Bhtml%3D1%3Brounded%3D0%3B%22%20edge%3D%221%22%20target%3D%2214%22%20parent%3D%221%22%3E%3CmxGeometry%20width%3D%2250%22%20height%3D%2250%22%20relative%3D%221%22%20as%3D%22geometry%22%3E%3CmxPoint%20x%3D%22444.5%22%20y%3D%224170%22%20as%3D%22sourcePoint%22%2F%3E%3CmxPoint%20x%3D%22444.5%22%20y%3D%224220%22%20as%3D%22targetPoint%22%2F%3E%3CArray%20as%3D%22points%22%2F%3E%3C%2FmxGeometry%3E%3C%2FmxCell%3E%3CmxCell%20id%3D%2214%22%20value%3D%22valor%22%20style%3D%22whiteSpace%3Dwrap%3Bhtml%3D1%3Baspect%3Dfixed%3B%22%20vertex%3D%221%22%20parent%3D%221%22%3E%3CmxGeometry%20x%3D%22400%22%20y%3D%224220%22%20width%3D%2280%22%20height%3D%2280%22%20as%3D%22geometry%22%2F%3E%3C%2FmxCell%3E%3CmxCell%20id%3D%2215%22%20value%3D%22%22%20style%3D%22shape%3DflexArrow%3BendArrow%3Dclassic%3Bhtml%3D1%3Brounded%3D0%3B%22%20edge%3D%221%22%20parent%3D%221%22%3E%3CmxGeometry%20width%3D%2250%22%20height%3D%2250%22%20relative%3D%221%22%20as%3D%22geometry%22%3E%3CmxPoint%20x%3D%22444.33000000000004%22%20y%3D%224540%22%20as%3D%22sourcePoint%22%2F%3E%3CmxPoint%20x%3D%22444.33000000000004%22%20y%3D%224600%22%20as%3D%22targetPoint%22%2F%3E%3C%2FmxGeometry%3E%3C%2FmxCell%3E%3CmxCell%20id%3D%2216%22%20style%3D%22edgeStyle%3DorthogonalEdgeStyle%3Brounded%3D0%3BorthogonalLoop%3D1%3BjettySize%3Dauto%3Bhtml%3D1%3BexitX%3D0%3BexitY%3D0.5%3BexitDx%3D0%3BexitDy%3D0%3B%22%20edge%3D%221%22%20source%3D%2218%22%20parent%3D%221%22%3E%3CmxGeometry%20relative%3D%221%22%20as%3D%22geometry%22%3E%3CmxPoint%20x%3D%22130%22%20y%3D%224750%22%20as%3D%22targetPoint%22%2F%3E%3C%2FmxGeometry%3E%3C%2FmxCell%3E%3CmxCell%20id%3D%2217%22%20style%3D%22edgeStyle%3DorthogonalEdgeStyle%3Brounded%3D0%3BorthogonalLoop%3D1%3BjettySize%3Dauto%3Bhtml%3D1%3BexitX%3D1%3BexitY%3D0.5%3BexitDx%3D0%3BexitDy%3D0%3B%22%20edge%3D%221%22%20source%3D%2218%22%20parent%3D%221%22%3E%3CmxGeometry%20relative%3D%221%22%20as%3D%22geometry%22%3E%3CmxPoint%20x%3D%22740%22%20y%3D%224750%22%20as%3D%22targetPoint%22%2F%3E%3C%2FmxGeometry%3E%3C%2FmxCell%3E%3CmxCell%20id%3D%2218%22%20value%3D%22%26amp%3Bnbsp%3B%20%26amp%3Bnbsp%3B%3D%26amp%3Bnbsp%3B%20%26quot%3Ba%20vista%26quot%3B%22%20style%3D%22rhombus%3BwhiteSpace%3Dwrap%3Bhtml%3D1%3B%22%20vertex%3D%221%22%20parent%3D%221%22%3E%3CmxGeometry%20x%3D%22290%22%20y%3D%224600%22%20width%3D%22310%22%20height%3D%22120%22%20as%3D%22geometry%22%2F%3E%3C%2FmxCell%3E%3CmxCell%20id%3D%2219%22%20value%3D%22pgto%22%20style%3D%22whiteSpace%3Dwrap%3Bhtml%3D1%3Baspect%3Dfixed%3B%22%20vertex%3D%221%22%20parent%3D%221%22%3E%3CmxGeometry%20x%3D%22365%22%20y%3D%224635%22%20width%3D%2250%22%20height%3D%2250%22%20as%3D%22geometry%22%2F%3E%3C%2FmxCell%3E%3CmxCell%20id%3D%2220%22%20style%3D%22edgeStyle%3DorthogonalEdgeStyle%3Brounded%3D0%3BorthogonalLoop%3D1%3BjettySize%3Dauto%3Bhtml%3D1%3BexitX%3D0.5%3BexitY%3D1%3BexitDx%3D0%3BexitDy%3D0%3B%22%20edge%3D%221%22%20source%3D%2231%22%20parent%3D%221%22%3E%3CmxGeometry%20relative%3D%221%22%20as%3D%22geometry%22%3E%3CmxPoint%20x%3D%22452.5%22%20y%3D%224950%22%20as%3D%22targetPoint%22%2F%3E%3C%2FmxGeometry%3E%3C%2FmxCell%3E%3CmxCell%20id%3D%2221%22%20value%3D%22V%22%20style%3D%22text%3Bhtml%3D1%3Balign%3Dcenter%3BverticalAlign%3Dmiddle%3BwhiteSpace%3Dwrap%3Brounded%3D0%3B%22%20vertex%3D%221%22%20parent%3D%221%22%3E%3CmxGeometry%20x%3D%22110%22%20y%3D%224630%22%20width%3D%2260%22%20height%3D%2230%22%20as%3D%22geometry%22%2F%3E%3C%2FmxCell%3E%3CmxCell%20id%3D%2222%22%20value%3D%22F%22%20style%3D%22text%3Bhtml%3D1%3Balign%3Dcenter%3BverticalAlign%3Dmiddle%3BwhiteSpace%3Dwrap%3Brounded%3D0%3B%22%20vertex%3D%221%22%20parent%3D%221%22%3E%3CmxGeometry%20x%3D%22695%22%20y%3D%224630%22%20width%3D%2260%22%20height%3D%2230%22%20as%3D%22geometry%22%2F%3E%3C%2FmxCell%3E%3CmxCell%20id%3D%2223%22%20value%3D%22%26amp%3Bnbsp%3B%20%26amp%3Bnbsp%3B%20%26amp%3Bnbsp%3B%20%26amp%3Bnbsp%3B%20%26amp%3Bnbsp%3B%20%26amp%3Bnbsp%3B%20%26amp%3Bnbsp%3B%20%26amp%3Blt%3B-%26amp%3Bnbsp%3B%20%26amp%3Bnbsp%3B%20%26amp%3Bnbsp%3B%20%26amp%3Bnbsp%3B%20%26amp%3Bnbsp%3B%20%26amp%3Bnbsp%3B%20%26amp%3Bnbsp%3B%20%26amp%3Bnbsp%3B%20*%26amp%3Bnbsp%3B%200.9%22%20style%3D%22rounded%3D0%3BwhiteSpace%3Dwrap%3Bhtml%3D1%3B%22%20vertex%3D%221%22%20parent%3D%221%22%3E%3CmxGeometry%20x%3D%2240%22%20y%3D%224750%22%20width%3D%22170%22%20height%3D%2280%22%20as%3D%22geometry%22%2F%3E%3C%2FmxCell%3E%3CmxCell%20id%3D%2224%22%20value%3D%22final%22%20style%3D%22whiteSpace%3Dwrap%3Bhtml%3D1%3Baspect%3Dfixed%3B%22%20vertex%3D%221%22%20parent%3D%221%22%3E%3CmxGeometry%20x%3D%2249%22%20y%3D%224765%22%20width%3D%2250%22%20height%3D%2250%22%20as%3D%22geometry%22%2F%3E%3C%2FmxCell%3E%3CmxCell%20id%3D%2225%22%20value%3D%22valor%22%20style%3D%22whiteSpace%3Dwrap%3Bhtml%3D1%3Baspect%3Dfixed%3B%22%20vertex%3D%221%22%20parent%3D%221%22%3E%3CmxGeometry%20x%3D%22114%22%20y%3D%224765%22%20width%3D%2250%22%20height%3D%2250%22%20as%3D%22geometry%22%2F%3E%3C%2FmxCell%3E%3CmxCell%20id%3D%2226%22%20style%3D%22edgeStyle%3DorthogonalEdgeStyle%3Brounded%3D0%3BorthogonalLoop%3D1%3BjettySize%3Dauto%3Bhtml%3D1%3BexitX%3D0.5%3BexitY%3D1%3BexitDx%3D0%3BexitDy%3D0%3B%22%20edge%3D%221%22%20source%3D%2227%22%20parent%3D%221%22%3E%3CmxGeometry%20relative%3D%221%22%20as%3D%22geometry%22%3E%3CmxPoint%20x%3D%22440%22%20y%3D%225030%22%20as%3D%22targetPoint%22%2F%3E%3C%2FmxGeometry%3E%3C%2FmxCell%3E%3CmxCell%20id%3D%2227%22%20value%3D%22%26amp%3Bnbsp%3B%20%26amp%3Bnbsp%3B%20%26amp%3Bnbsp%3B%20%26amp%3Bnbsp%3B%20%26amp%3Bnbsp%3B%20%26amp%3Bnbsp%3B%20%26amp%3Bnbsp%3B%20%26amp%3Bnbsp%3B%26amp%3Blt%3B-%26amp%3Bnbsp%3B%20%26amp%3Bnbsp%3B%20%26amp%3Bnbsp%3B%20%26amp%3Bnbsp%3B%20%26amp%3Bnbsp%3B%20%26amp%3Bnbsp%3B%20%26amp%3Bnbsp%3B%20%26amp%3Bnbsp%3B%20%26amp%3Bnbsp%3B*%26amp%3Bnbsp%3B%201.12%22%20style%3D%22rounded%3D0%3BwhiteSpace%3Dwrap%3Bhtml%3D1%3B%22%20vertex%3D%221%22%20parent%3D%221%22%3E%3CmxGeometry%20x%3D%22655%22%20y%3D%224750%22%20width%3D%22170%22%20height%3D%2280%22%20as%3D%22geometry%22%2F%3E%3C%2FmxCell%3E%3CmxCell%20id%3D%2228%22%20value%3D%22final%22%20style%3D%22whiteSpace%3Dwrap%3Bhtml%3D1%3Baspect%3Dfixed%3B%22%20vertex%3D%221%22%20parent%3D%221%22%3E%3CmxGeometry%20x%3D%22664%22%20y%3D%224765%22%20width%3D%2250%22%20height%3D%2250%22%20as%3D%22geometry%22%2F%3E%3C%2FmxCell%3E%3CmxCell%20id%3D%2229%22%20value%3D%22valor%22%20style%3D%22whiteSpace%3Dwrap%3Bhtml%3D1%3Baspect%3Dfixed%3B%22%20vertex%3D%221%22%20parent%3D%221%22%3E%3CmxGeometry%20x%3D%22729%22%20y%3D%224765%22%20width%3D%2250%22%20height%3D%2250%22%20as%3D%22geometry%22%2F%3E%3C%2FmxCell%3E%3CmxCell%20id%3D%2230%22%20value%3D%22final%22%20style%3D%22whiteSpace%3Dwrap%3Bhtml%3D1%3Baspect%3Dfixed%3B%22%20vertex%3D%221%22%20parent%3D%221%22%3E%3CmxGeometry%20x%3D%22416.5%22%20y%3D%225055%22%20width%3D%2250%22%20height%3D%2250%22%20as%3D%22geometry%22%2F%3E%3C%2FmxCell%3E%3CmxCell%20id%3D%2231%22%20value%3D%22%22%20style%3D%22ellipse%3BwhiteSpace%3Dwrap%3Bhtml%3D1%3Baspect%3Dfixed%3B%22%20vertex%3D%221%22%20parent%3D%221%22%3E%3CmxGeometry%20x%3D%22407.5%22%20y%3D%224900%22%20width%3D%2280%22%20height%3D%2280%22%20as%3D%22geometry%22%2F%3E%3C%2FmxCell%3E%3CmxCell%20id%3D%2232%22%20value%3D%22%22%20style%3D%22shape%3DflexArrow%3BendArrow%3Dclassic%3Bhtml%3D1%3Brounded%3D0%3B%22%20edge%3D%221%22%20parent%3D%221%22%3E%3CmxGeometry%20width%3D%2250%22%20height%3D%2250%22%20relative%3D%221%22%20as%3D%22geometry%22%3E%3CmxPoint%20x%3D%22446.50000000000006%22%20y%3D%224980%22%20as%3D%22sourcePoint%22%2F%3E%3CmxPoint%20x%3D%22446.5%22%20y%3D%225035%22%20as%3D%22targetPoint%22%2F%3E%3CArray%20as%3D%22points%22%3E%3CmxPoint%20x%3D%22446.50000000000006%22%20y%3D%224990%22%2F%3E%3C%2FArray%3E%3C%2FmxGeometry%3E%3C%2FmxCell%3E%3C%2Froot%3E%3C%2FmxGraphModel%3E&lt;/span&gt;" style="whiteSpace=wrap;html=1;aspect=fixed;" parent="1" vertex="1">
          <mxGeometry x="365" y="5975" width="50" height="50" as="geometry" />
        </mxCell>
        <mxCell id="pJJjCT_8jM6wzj25OI1I-19" style="edgeStyle=orthogonalEdgeStyle;rounded=0;orthogonalLoop=1;jettySize=auto;html=1;exitX=0.5;exitY=1;exitDx=0;exitDy=0;" parent="1" source="pJJjCT_8jM6wzj25OI1I-30" edge="1">
          <mxGeometry relative="1" as="geometry">
            <mxPoint x="462.5" y="6760" as="targetPoint" />
          </mxGeometry>
        </mxCell>
        <mxCell id="pJJjCT_8jM6wzj25OI1I-20" value="V" style="text;html=1;align=center;verticalAlign=middle;whiteSpace=wrap;rounded=0;" parent="1" vertex="1">
          <mxGeometry x="110" y="5970" width="60" height="30" as="geometry" />
        </mxCell>
        <mxCell id="pJJjCT_8jM6wzj25OI1I-21" value="F" style="text;html=1;align=center;verticalAlign=middle;whiteSpace=wrap;rounded=0;" parent="1" vertex="1">
          <mxGeometry x="695" y="5970" width="60" height="30" as="geometry" />
        </mxCell>
        <mxCell id="pJJjCT_8jM6wzj25OI1I-30" value="" style="ellipse;whiteSpace=wrap;html=1;aspect=fixed;" parent="1" vertex="1">
          <mxGeometry x="417.5" y="6710" width="80" height="80" as="geometry" />
        </mxCell>
        <mxCell id="pJJjCT_8jM6wzj25OI1I-31" value="" style="shape=flexArrow;endArrow=classic;html=1;rounded=0;" parent="1" edge="1">
          <mxGeometry width="50" height="50" relative="1" as="geometry">
            <mxPoint x="456.50000000000006" y="6790" as="sourcePoint" />
            <mxPoint x="456.5" y="6845" as="targetPoint" />
            <Array as="points">
              <mxPoint x="456.50000000000006" y="6800" />
            </Array>
          </mxGeometry>
        </mxCell>
        <mxCell id="pJJjCT_8jM6wzj25OI1I-32" value="valor" style="whiteSpace=wrap;html=1;aspect=fixed;" parent="1" vertex="1">
          <mxGeometry x="435" y="5975" width="50" height="50" as="geometry" />
        </mxCell>
        <mxCell id="pJJjCT_8jM6wzj25OI1I-95" style="edgeStyle=orthogonalEdgeStyle;rounded=0;orthogonalLoop=1;jettySize=auto;html=1;exitX=0.5;exitY=1;exitDx=0;exitDy=0;entryX=0.5;entryY=0;entryDx=0;entryDy=0;" parent="1" source="pJJjCT_8jM6wzj25OI1I-96" target="pJJjCT_8jM6wzj25OI1I-113" edge="1">
          <mxGeometry relative="1" as="geometry" />
        </mxCell>
        <mxCell id="pJJjCT_8jM6wzj25OI1I-96" value="&quot;Valor final:&quot;&amp;nbsp; &amp;nbsp;&amp;nbsp;" style="shape=dataStorage;whiteSpace=wrap;html=1;fixedSize=1;" parent="1" vertex="1">
          <mxGeometry x="80" y="6340" width="100" height="80" as="geometry" />
        </mxCell>
        <mxCell id="pJJjCT_8jM6wzj25OI1I-103" style="edgeStyle=orthogonalEdgeStyle;rounded=0;orthogonalLoop=1;jettySize=auto;html=1;exitX=0.5;exitY=1;exitDx=0;exitDy=0;entryX=0.5;entryY=0;entryDx=0;entryDy=0;" parent="1" source="pJJjCT_8jM6wzj25OI1I-104" target="pJJjCT_8jM6wzj25OI1I-96" edge="1">
          <mxGeometry relative="1" as="geometry" />
        </mxCell>
        <mxCell id="pJJjCT_8jM6wzj25OI1I-104" value="&amp;nbsp; &amp;nbsp; &amp;nbsp; &amp;nbsp; &amp;nbsp; &amp;nbsp; &amp;nbsp; &amp;nbsp; &amp;nbsp;&amp;lt;-&amp;nbsp; &amp;nbsp; &amp;nbsp; &amp;nbsp; &amp;nbsp; &amp;nbsp; &amp;nbsp; &amp;nbsp; &amp;nbsp;*&amp;nbsp; 0.965" style="rounded=0;whiteSpace=wrap;html=1;" parent="1" vertex="1">
          <mxGeometry x="45" y="6210" width="170" height="80" as="geometry" />
        </mxCell>
        <mxCell id="pJJjCT_8jM6wzj25OI1I-105" value="final" style="whiteSpace=wrap;html=1;aspect=fixed;" parent="1" vertex="1">
          <mxGeometry x="54" y="6225" width="50" height="50" as="geometry" />
        </mxCell>
        <mxCell id="pJJjCT_8jM6wzj25OI1I-106" value="valor" style="whiteSpace=wrap;html=1;aspect=fixed;" parent="1" vertex="1">
          <mxGeometry x="119" y="6225" width="50" height="50" as="geometry" />
        </mxCell>
        <mxCell id="pJJjCT_8jM6wzj25OI1I-113" value="" style="shape=dataStorage;whiteSpace=wrap;html=1;fixedSize=1;" parent="1" vertex="1">
          <mxGeometry x="80" y="6450" width="100" height="80" as="geometry" />
        </mxCell>
        <mxCell id="pJJjCT_8jM6wzj25OI1I-114" value="final" style="whiteSpace=wrap;html=1;aspect=fixed;" parent="1" vertex="1">
          <mxGeometry x="100" y="6465" width="50" height="50" as="geometry" />
        </mxCell>
        <mxCell id="pJJjCT_8jM6wzj25OI1I-126" style="edgeStyle=orthogonalEdgeStyle;rounded=0;orthogonalLoop=1;jettySize=auto;html=1;exitX=0.5;exitY=1;exitDx=0;exitDy=0;entryX=0.475;entryY=-0.133;entryDx=0;entryDy=0;entryPerimeter=0;" parent="1" source="pJJjCT_8jM6wzj25OI1I-7" edge="1">
          <mxGeometry relative="1" as="geometry">
            <mxPoint x="130" y="6212.02" as="targetPoint" />
          </mxGeometry>
        </mxCell>
        <mxCell id="pJJjCT_8jM6wzj25OI1I-128" style="edgeStyle=orthogonalEdgeStyle;rounded=0;orthogonalLoop=1;jettySize=auto;html=1;exitX=0.5;exitY=1;exitDx=0;exitDy=0;entryX=0.5;entryY=0;entryDx=0;entryDy=0;" parent="1" source="pJJjCT_8jM6wzj25OI1I-129" target="pJJjCT_8jM6wzj25OI1I-134" edge="1">
          <mxGeometry relative="1" as="geometry" />
        </mxCell>
        <mxCell id="pJJjCT_8jM6wzj25OI1I-129" value="&quot;Parcela:&quot;&amp;nbsp; &amp;nbsp;" style="shape=dataStorage;whiteSpace=wrap;html=1;fixedSize=1;" parent="1" vertex="1">
          <mxGeometry x="685" y="6460" width="100" height="80" as="geometry" />
        </mxCell>
        <mxCell id="pJJjCT_8jM6wzj25OI1I-130" style="edgeStyle=orthogonalEdgeStyle;rounded=0;orthogonalLoop=1;jettySize=auto;html=1;exitX=0.5;exitY=1;exitDx=0;exitDy=0;entryX=0.5;entryY=0;entryDx=0;entryDy=0;" parent="1" source="pJJjCT_8jM6wzj25OI1I-131" target="pJJjCT_8jM6wzj25OI1I-129" edge="1">
          <mxGeometry relative="1" as="geometry" />
        </mxCell>
        <mxCell id="pJJjCT_8jM6wzj25OI1I-131" value="&amp;lt;-&amp;nbsp; &amp;nbsp; &amp;nbsp; &amp;nbsp; &amp;nbsp; &amp;nbsp; &amp;nbsp; &amp;nbsp; &amp;nbsp; &amp;nbsp;/&amp;nbsp;" style="rounded=0;whiteSpace=wrap;html=1;" parent="1" vertex="1">
          <mxGeometry x="625" y="6330" width="220" height="80" as="geometry" />
        </mxCell>
        <mxCell id="pJJjCT_8jM6wzj25OI1I-132" value="pgto" style="whiteSpace=wrap;html=1;aspect=fixed;" parent="1" vertex="1">
          <mxGeometry x="640" y="6345" width="50" height="50" as="geometry" />
        </mxCell>
        <mxCell id="pJJjCT_8jM6wzj25OI1I-133" value="valor" style="whiteSpace=wrap;html=1;aspect=fixed;" parent="1" vertex="1">
          <mxGeometry x="710" y="6345" width="50" height="50" as="geometry" />
        </mxCell>
        <mxCell id="pJJjCT_8jM6wzj25OI1I-134" value="" style="shape=dataStorage;whiteSpace=wrap;html=1;fixedSize=1;" parent="1" vertex="1">
          <mxGeometry x="685" y="6570" width="100" height="80" as="geometry" />
        </mxCell>
        <mxCell id="pJJjCT_8jM6wzj25OI1I-135" value="pgto" style="whiteSpace=wrap;html=1;aspect=fixed;" parent="1" vertex="1">
          <mxGeometry x="705" y="6585" width="50" height="50" as="geometry" />
        </mxCell>
        <mxCell id="pJJjCT_8jM6wzj25OI1I-136" value="parcelas" style="whiteSpace=wrap;html=1;aspect=fixed;" parent="1" vertex="1">
          <mxGeometry x="780" y="6345" width="50" height="50" as="geometry" />
        </mxCell>
        <mxCell id="pJJjCT_8jM6wzj25OI1I-137" value="15" style="shape=parallelogram;perimeter=parallelogramPerimeter;whiteSpace=wrap;html=1;fixedSize=1;" parent="1" vertex="1">
          <mxGeometry x="675" y="6090" width="120" height="60" as="geometry" />
        </mxCell>
        <mxCell id="pJJjCT_8jM6wzj25OI1I-138" value="" style="shape=flexArrow;endArrow=classic;html=1;rounded=0;" parent="1" edge="1">
          <mxGeometry width="50" height="50" relative="1" as="geometry">
            <mxPoint x="734.5" y="6280" as="sourcePoint" />
            <mxPoint x="734.5" y="6330" as="targetPoint" />
            <Array as="points">
              <mxPoint x="734.5" y="6290" />
            </Array>
          </mxGeometry>
        </mxCell>
        <mxCell id="pJJjCT_8jM6wzj25OI1I-139" value="" style="shape=flexArrow;endArrow=classic;html=1;rounded=0;" parent="1" target="pJJjCT_8jM6wzj25OI1I-140" edge="1">
          <mxGeometry width="50" height="50" relative="1" as="geometry">
            <mxPoint x="734.5" y="6150" as="sourcePoint" />
            <mxPoint x="734.5" y="6200" as="targetPoint" />
            <Array as="points" />
          </mxGeometry>
        </mxCell>
        <mxCell id="pJJjCT_8jM6wzj25OI1I-140" value="parcelas" style="whiteSpace=wrap;html=1;aspect=fixed;" parent="1" vertex="1">
          <mxGeometry x="690" y="6200" width="80" height="80" as="geometry" />
        </mxCell>
        <mxCell id="X8Ls8Dh0Z7Ix0QkaIfbj-1" value="&lt;font size=&quot;3&quot;&gt;início&lt;/font&gt;" style="ellipse;whiteSpace=wrap;html=1;" parent="1" vertex="1">
          <mxGeometry x="145" y="6970" width="120" height="80" as="geometry" />
        </mxCell>
        <mxCell id="X8Ls8Dh0Z7Ix0QkaIfbj-2" value="" style="shape=flexArrow;endArrow=classic;html=1;rounded=0;" parent="1" edge="1">
          <mxGeometry width="50" height="50" relative="1" as="geometry">
            <mxPoint x="204.5" y="7050" as="sourcePoint" />
            <mxPoint x="204.5" y="7100" as="targetPoint" />
            <Array as="points">
              <mxPoint x="204.5" y="7060" />
            </Array>
          </mxGeometry>
        </mxCell>
        <mxCell id="X8Ls8Dh0Z7Ix0QkaIfbj-3" value="75" style="shape=parallelogram;perimeter=parallelogramPerimeter;whiteSpace=wrap;html=1;fixedSize=1;" parent="1" vertex="1">
          <mxGeometry x="145" y="7100" width="120" height="60" as="geometry" />
        </mxCell>
        <mxCell id="X8Ls8Dh0Z7Ix0QkaIfbj-5" value="" style="shape=flexArrow;endArrow=classic;html=1;rounded=0;" parent="1" edge="1">
          <mxGeometry width="50" height="50" relative="1" as="geometry">
            <mxPoint x="204.5" y="7290" as="sourcePoint" />
            <mxPoint x="204.5" y="7340" as="targetPoint" />
            <Array as="points">
              <mxPoint x="204.5" y="7300" />
            </Array>
          </mxGeometry>
        </mxCell>
        <mxCell id="X8Ls8Dh0Z7Ix0QkaIfbj-6" value="" style="shape=dataStorage;whiteSpace=wrap;html=1;fixedSize=1;" parent="1" vertex="1">
          <mxGeometry x="154" y="7475" width="100" height="80" as="geometry" />
        </mxCell>
        <mxCell id="X8Ls8Dh0Z7Ix0QkaIfbj-7" value="" style="shape=flexArrow;endArrow=classic;html=1;rounded=0;" parent="1" edge="1">
          <mxGeometry width="50" height="50" relative="1" as="geometry">
            <mxPoint x="208.5" y="7555" as="sourcePoint" />
            <mxPoint x="208.5" y="7605" as="targetPoint" />
            <Array as="points">
              <mxPoint x="208.5" y="7565" />
            </Array>
          </mxGeometry>
        </mxCell>
        <mxCell id="X8Ls8Dh0Z7Ix0QkaIfbj-8" value="fim" style="ellipse;whiteSpace=wrap;html=1;" parent="1" vertex="1">
          <mxGeometry x="149" y="7605" width="120" height="80" as="geometry" />
        </mxCell>
        <mxCell id="X8Ls8Dh0Z7Ix0QkaIfbj-9" value="c" style="whiteSpace=wrap;html=1;aspect=fixed;" parent="1" vertex="1">
          <mxGeometry x="179" y="7490" width="50" height="50" as="geometry" />
        </mxCell>
        <mxCell id="X8Ls8Dh0Z7Ix0QkaIfbj-12" value="" style="shape=flexArrow;endArrow=classic;html=1;rounded=0;" parent="1" edge="1">
          <mxGeometry width="50" height="50" relative="1" as="geometry">
            <mxPoint x="208.33000000000004" y="7425" as="sourcePoint" />
            <mxPoint x="208.33000000000004" y="7475" as="targetPoint" />
            <Array as="points">
              <mxPoint x="208.33000000000004" y="7435" />
            </Array>
          </mxGeometry>
        </mxCell>
        <mxCell id="X8Ls8Dh0Z7Ix0QkaIfbj-13" value="" style="shape=flexArrow;endArrow=classic;html=1;rounded=0;" parent="1" target="X8Ls8Dh0Z7Ix0QkaIfbj-14" edge="1">
          <mxGeometry width="50" height="50" relative="1" as="geometry">
            <mxPoint x="204.5" y="7160" as="sourcePoint" />
            <mxPoint x="204.5" y="7210" as="targetPoint" />
            <Array as="points" />
          </mxGeometry>
        </mxCell>
        <mxCell id="X8Ls8Dh0Z7Ix0QkaIfbj-14" value="f" style="whiteSpace=wrap;html=1;aspect=fixed;" parent="1" vertex="1">
          <mxGeometry x="160" y="7210" width="80" height="80" as="geometry" />
        </mxCell>
        <mxCell id="X8Ls8Dh0Z7Ix0QkaIfbj-16" value="&amp;nbsp; &amp;nbsp; &amp;nbsp; &amp;nbsp; &amp;nbsp; &amp;nbsp; &amp;nbsp; &amp;nbsp; &amp;nbsp; &amp;nbsp; &amp;nbsp;&amp;lt;-&amp;nbsp; &amp;nbsp;(&amp;nbsp; &amp;nbsp; &amp;nbsp; &amp;nbsp; &amp;nbsp; &amp;nbsp; &amp;nbsp; &amp;nbsp; &amp;nbsp; &amp;nbsp; &amp;nbsp;-&amp;nbsp; 32 )&amp;nbsp; /&amp;nbsp; &amp;nbsp;1.8&amp;nbsp; &amp;nbsp;&amp;nbsp;" style="rounded=0;whiteSpace=wrap;html=1;" parent="1" vertex="1">
          <mxGeometry x="54" y="7340" width="250" height="80" as="geometry" />
        </mxCell>
        <mxCell id="X8Ls8Dh0Z7Ix0QkaIfbj-17" value="c" style="whiteSpace=wrap;html=1;aspect=fixed;" parent="1" vertex="1">
          <mxGeometry x="69" y="7355" width="50" height="50" as="geometry" />
        </mxCell>
        <mxCell id="X8Ls8Dh0Z7Ix0QkaIfbj-18" value="f" style="whiteSpace=wrap;html=1;aspect=fixed;" parent="1" vertex="1">
          <mxGeometry x="164" y="7355" width="50" height="50" as="geometry" />
        </mxCell>
        <mxCell id="X8Ls8Dh0Z7Ix0QkaIfbj-20" value="&lt;font size=&quot;3&quot;&gt;início&lt;/font&gt;" style="ellipse;whiteSpace=wrap;html=1;" parent="1" vertex="1">
          <mxGeometry x="605" y="6970" width="120" height="80" as="geometry" />
        </mxCell>
        <mxCell id="X8Ls8Dh0Z7Ix0QkaIfbj-21" value="" style="shape=flexArrow;endArrow=classic;html=1;rounded=0;" parent="1" edge="1">
          <mxGeometry width="50" height="50" relative="1" as="geometry">
            <mxPoint x="664.5" y="7050" as="sourcePoint" />
            <mxPoint x="664.5" y="7100" as="targetPoint" />
            <Array as="points">
              <mxPoint x="664.5" y="7060" />
            </Array>
          </mxGeometry>
        </mxCell>
        <mxCell id="X8Ls8Dh0Z7Ix0QkaIfbj-22" value="5" style="shape=parallelogram;perimeter=parallelogramPerimeter;whiteSpace=wrap;html=1;fixedSize=1;" parent="1" vertex="1">
          <mxGeometry x="605" y="7100" width="120" height="60" as="geometry" />
        </mxCell>
        <mxCell id="X8Ls8Dh0Z7Ix0QkaIfbj-23" value="n2" style="whiteSpace=wrap;html=1;aspect=fixed;" parent="1" vertex="1">
          <mxGeometry x="625" y="7450" width="80" height="80" as="geometry" />
        </mxCell>
        <mxCell id="X8Ls8Dh0Z7Ix0QkaIfbj-24" value="" style="shape=flexArrow;endArrow=classic;html=1;rounded=0;" parent="1" edge="1">
          <mxGeometry width="50" height="50" relative="1" as="geometry">
            <mxPoint x="664.5" y="7290" as="sourcePoint" />
            <mxPoint x="664.5" y="7340" as="targetPoint" />
            <Array as="points">
              <mxPoint x="664.5" y="7300" />
            </Array>
          </mxGeometry>
        </mxCell>
        <mxCell id="X8Ls8Dh0Z7Ix0QkaIfbj-25" value="" style="shape=dataStorage;whiteSpace=wrap;html=1;fixedSize=1;" parent="1" vertex="1">
          <mxGeometry x="615" y="7965" width="100" height="80" as="geometry" />
        </mxCell>
        <mxCell id="X8Ls8Dh0Z7Ix0QkaIfbj-26" value="" style="shape=flexArrow;endArrow=classic;html=1;rounded=0;" parent="1" edge="1">
          <mxGeometry width="50" height="50" relative="1" as="geometry">
            <mxPoint x="669.5" y="8045" as="sourcePoint" />
            <mxPoint x="669.5" y="8095" as="targetPoint" />
            <Array as="points">
              <mxPoint x="669.5" y="8055" />
            </Array>
          </mxGeometry>
        </mxCell>
        <mxCell id="X8Ls8Dh0Z7Ix0QkaIfbj-27" value="fim" style="ellipse;whiteSpace=wrap;html=1;" parent="1" vertex="1">
          <mxGeometry x="610" y="8095" width="120" height="80" as="geometry" />
        </mxCell>
        <mxCell id="X8Ls8Dh0Z7Ix0QkaIfbj-28" value="final" style="whiteSpace=wrap;html=1;aspect=fixed;" parent="1" vertex="1">
          <mxGeometry x="640" y="7980" width="50" height="50" as="geometry" />
        </mxCell>
        <mxCell id="X8Ls8Dh0Z7Ix0QkaIfbj-29" value="7" style="shape=parallelogram;perimeter=parallelogramPerimeter;whiteSpace=wrap;html=1;fixedSize=1;" parent="1" vertex="1">
          <mxGeometry x="605" y="7340" width="120" height="60" as="geometry" />
        </mxCell>
        <mxCell id="X8Ls8Dh0Z7Ix0QkaIfbj-30" value="" style="shape=flexArrow;endArrow=classic;html=1;rounded=0;" parent="1" edge="1">
          <mxGeometry width="50" height="50" relative="1" as="geometry">
            <mxPoint x="664.33" y="7400" as="sourcePoint" />
            <mxPoint x="664.33" y="7450" as="targetPoint" />
            <Array as="points">
              <mxPoint x="664.33" y="7410" />
            </Array>
          </mxGeometry>
        </mxCell>
        <mxCell id="X8Ls8Dh0Z7Ix0QkaIfbj-31" value="" style="shape=flexArrow;endArrow=classic;html=1;rounded=0;" parent="1" edge="1">
          <mxGeometry width="50" height="50" relative="1" as="geometry">
            <mxPoint x="669.33" y="7915" as="sourcePoint" />
            <mxPoint x="669.33" y="7965" as="targetPoint" />
            <Array as="points">
              <mxPoint x="669.33" y="7925" />
            </Array>
          </mxGeometry>
        </mxCell>
        <mxCell id="X8Ls8Dh0Z7Ix0QkaIfbj-32" value="" style="shape=flexArrow;endArrow=classic;html=1;rounded=0;" parent="1" target="X8Ls8Dh0Z7Ix0QkaIfbj-33" edge="1">
          <mxGeometry width="50" height="50" relative="1" as="geometry">
            <mxPoint x="664.5" y="7160" as="sourcePoint" />
            <mxPoint x="664.5" y="7210" as="targetPoint" />
            <Array as="points" />
          </mxGeometry>
        </mxCell>
        <mxCell id="X8Ls8Dh0Z7Ix0QkaIfbj-33" value="n1" style="whiteSpace=wrap;html=1;aspect=fixed;" parent="1" vertex="1">
          <mxGeometry x="620" y="7210" width="80" height="80" as="geometry" />
        </mxCell>
        <mxCell id="X8Ls8Dh0Z7Ix0QkaIfbj-34" value="" style="shape=flexArrow;endArrow=classic;html=1;rounded=0;" parent="1" edge="1">
          <mxGeometry width="50" height="50" relative="1" as="geometry">
            <mxPoint x="664.33" y="7530" as="sourcePoint" />
            <mxPoint x="664.33" y="7590" as="targetPoint" />
          </mxGeometry>
        </mxCell>
        <mxCell id="X8Ls8Dh0Z7Ix0QkaIfbj-35" value="&amp;nbsp; &amp;nbsp; &amp;nbsp; &amp;nbsp; &amp;nbsp; f&amp;nbsp; &amp;nbsp; &amp;nbsp; &amp;nbsp; &amp;lt;- (&amp;nbsp; &amp;nbsp; &amp;nbsp; &amp;nbsp; &amp;nbsp; &amp;nbsp; &amp;nbsp; &amp;nbsp; &amp;nbsp; *2&amp;nbsp; +&amp;nbsp; &amp;nbsp; &amp;nbsp; &amp;nbsp; &amp;nbsp; &amp;nbsp; &amp;nbsp; &amp;nbsp; &amp;nbsp; &amp;nbsp;*3&amp;nbsp; +&amp;nbsp; &amp;nbsp; &amp;nbsp; &amp;nbsp; &amp;nbsp; &amp;nbsp; &amp;nbsp; &amp;nbsp; &amp;nbsp;*5&amp;nbsp; ) / 10" style="rounded=0;whiteSpace=wrap;html=1;" parent="1" vertex="1">
          <mxGeometry x="470" y="7830" width="360" height="80" as="geometry" />
        </mxCell>
        <mxCell id="X8Ls8Dh0Z7Ix0QkaIfbj-36" value="final" style="whiteSpace=wrap;html=1;aspect=fixed;" parent="1" vertex="1">
          <mxGeometry x="480" y="7845" width="50" height="50" as="geometry" />
        </mxCell>
        <mxCell id="X8Ls8Dh0Z7Ix0QkaIfbj-37" value="n1" style="whiteSpace=wrap;html=1;aspect=fixed;" parent="1" vertex="1">
          <mxGeometry x="555" y="7845" width="50" height="50" as="geometry" />
        </mxCell>
        <mxCell id="X8Ls8Dh0Z7Ix0QkaIfbj-38" value="n2" style="whiteSpace=wrap;html=1;aspect=fixed;" parent="1" vertex="1">
          <mxGeometry x="645" y="7845" width="50" height="50" as="geometry" />
        </mxCell>
        <mxCell id="X8Ls8Dh0Z7Ix0QkaIfbj-39" value="n3" style="whiteSpace=wrap;html=1;aspect=fixed;" parent="1" vertex="1">
          <mxGeometry x="625" y="7690" width="80" height="80" as="geometry" />
        </mxCell>
        <mxCell id="X8Ls8Dh0Z7Ix0QkaIfbj-40" value="6" style="shape=parallelogram;perimeter=parallelogramPerimeter;whiteSpace=wrap;html=1;fixedSize=1;" parent="1" vertex="1">
          <mxGeometry x="605" y="7580" width="120" height="60" as="geometry" />
        </mxCell>
        <mxCell id="X8Ls8Dh0Z7Ix0QkaIfbj-41" value="" style="shape=flexArrow;endArrow=classic;html=1;rounded=0;" parent="1" edge="1">
          <mxGeometry width="50" height="50" relative="1" as="geometry">
            <mxPoint x="664.33" y="7640" as="sourcePoint" />
            <mxPoint x="664.33" y="7690" as="targetPoint" />
            <Array as="points">
              <mxPoint x="664.33" y="7650" />
            </Array>
          </mxGeometry>
        </mxCell>
        <mxCell id="X8Ls8Dh0Z7Ix0QkaIfbj-42" value="" style="shape=flexArrow;endArrow=classic;html=1;rounded=0;" parent="1" edge="1">
          <mxGeometry width="50" height="50" relative="1" as="geometry">
            <mxPoint x="664.33" y="7770" as="sourcePoint" />
            <mxPoint x="664.33" y="7830" as="targetPoint" />
          </mxGeometry>
        </mxCell>
        <mxCell id="X8Ls8Dh0Z7Ix0QkaIfbj-43" value="n3" style="whiteSpace=wrap;html=1;aspect=fixed;" parent="1" vertex="1">
          <mxGeometry x="730" y="7845" width="50" height="50" as="geometry" />
        </mxCell>
        <mxCell id="Xu8PjRT-vQoSqTSK4_cK-1" value="&lt;font size=&quot;3&quot;&gt;início&lt;/font&gt;" style="ellipse;whiteSpace=wrap;html=1;" vertex="1" parent="1">
          <mxGeometry x="397.5" y="8220" width="120" height="80" as="geometry" />
        </mxCell>
        <mxCell id="Xu8PjRT-vQoSqTSK4_cK-2" value="" style="shape=flexArrow;endArrow=classic;html=1;rounded=0;" edge="1" parent="1">
          <mxGeometry width="50" height="50" relative="1" as="geometry">
            <mxPoint x="457" y="8300" as="sourcePoint" />
            <mxPoint x="457" y="8350" as="targetPoint" />
            <Array as="points">
              <mxPoint x="457" y="8310" />
            </Array>
          </mxGeometry>
        </mxCell>
        <mxCell id="Xu8PjRT-vQoSqTSK4_cK-3" value="75" style="shape=parallelogram;perimeter=parallelogramPerimeter;whiteSpace=wrap;html=1;fixedSize=1;" vertex="1" parent="1">
          <mxGeometry x="397.5" y="8350" width="120" height="60" as="geometry" />
        </mxCell>
        <mxCell id="Xu8PjRT-vQoSqTSK4_cK-4" value="valor" style="whiteSpace=wrap;html=1;aspect=fixed;" vertex="1" parent="1">
          <mxGeometry x="417.5" y="8700" width="80" height="80" as="geometry" />
        </mxCell>
        <mxCell id="Xu8PjRT-vQoSqTSK4_cK-5" value="" style="shape=flexArrow;endArrow=classic;html=1;rounded=0;" edge="1" parent="1">
          <mxGeometry width="50" height="50" relative="1" as="geometry">
            <mxPoint x="457" y="8540" as="sourcePoint" />
            <mxPoint x="457" y="8590" as="targetPoint" />
            <Array as="points">
              <mxPoint x="457" y="8550" />
            </Array>
          </mxGeometry>
        </mxCell>
        <mxCell id="Xu8PjRT-vQoSqTSK4_cK-6" style="edgeStyle=orthogonalEdgeStyle;rounded=0;orthogonalLoop=1;jettySize=auto;html=1;exitX=0.5;exitY=1;exitDx=0;exitDy=0;" edge="1" parent="1" source="Xu8PjRT-vQoSqTSK4_cK-7">
          <mxGeometry relative="1" as="geometry">
            <mxPoint x="452.5" y="9320" as="targetPoint" />
          </mxGeometry>
        </mxCell>
        <mxCell id="Xu8PjRT-vQoSqTSK4_cK-7" value="&quot;reprovado&quot;&amp;nbsp; &amp;nbsp;&amp;nbsp;&lt;span style=&quot;color: rgba(0, 0, 0, 0); font-family: monospace; font-size: 0px; text-align: start; text-wrap: nowrap;&quot;&gt;%3CmxGraphModel%3E%3Croot%3E%3CmxCell%20id%3D%220%22%2F%3E%3CmxCell%20id%3D%221%22%20parent%3D%220%22%2F%3E%3CmxCell%20id%3D%222%22%20value%3D%22%22%20style%3D%22shape%3DflexArrow%3BendArrow%3Dclassic%3Bhtml%3D1%3Brounded%3D0%3B%22%20edge%3D%221%22%20parent%3D%221%22%3E%3CmxGeometry%20width%3D%2250%22%20height%3D%2250%22%20relative%3D%221%22%20as%3D%22geometry%22%3E%3CmxPoint%20x%3D%22424.33000000000004%22%20y%3D%223740%22%20as%3D%22sourcePoint%22%2F%3E%3CmxPoint%20x%3D%22424.33000000000004%22%20y%3D%223790%22%20as%3D%22targetPoint%22%2F%3E%3CArray%20as%3D%22points%22%3E%3CmxPoint%20x%3D%22424.33000000000004%22%20y%3D%223750%22%2F%3E%3C%2FArray%3E%3C%2FmxGeometry%3E%3C%2FmxCell%3E%3C%2Froot%3E%3C%2FmxGraphModel%3E&lt;/span&gt;" style="shape=dataStorage;whiteSpace=wrap;html=1;fixedSize=1;" vertex="1" parent="1">
          <mxGeometry x="92.5" y="9120" width="100" height="80" as="geometry" />
        </mxCell>
        <mxCell id="Xu8PjRT-vQoSqTSK4_cK-8" value="" style="shape=flexArrow;endArrow=classic;html=1;rounded=0;" edge="1" parent="1">
          <mxGeometry width="50" height="50" relative="1" as="geometry">
            <mxPoint x="457" y="9350" as="sourcePoint" />
            <mxPoint x="457" y="9400" as="targetPoint" />
            <Array as="points">
              <mxPoint x="457" y="9360" />
            </Array>
          </mxGeometry>
        </mxCell>
        <mxCell id="Xu8PjRT-vQoSqTSK4_cK-9" value="fim" style="ellipse;whiteSpace=wrap;html=1;" vertex="1" parent="1">
          <mxGeometry x="397.5" y="9400" width="120" height="80" as="geometry" />
        </mxCell>
        <mxCell id="Xu8PjRT-vQoSqTSK4_cK-10" value="1" style="shape=parallelogram;perimeter=parallelogramPerimeter;whiteSpace=wrap;html=1;fixedSize=1;" vertex="1" parent="1">
          <mxGeometry x="397.5" y="8590" width="120" height="60" as="geometry" />
        </mxCell>
        <mxCell id="Xu8PjRT-vQoSqTSK4_cK-11" value="" style="shape=flexArrow;endArrow=classic;html=1;rounded=0;" edge="1" parent="1">
          <mxGeometry width="50" height="50" relative="1" as="geometry">
            <mxPoint x="456.83000000000004" y="8650" as="sourcePoint" />
            <mxPoint x="456.83000000000004" y="8700" as="targetPoint" />
            <Array as="points">
              <mxPoint x="456.83000000000004" y="8660" />
            </Array>
          </mxGeometry>
        </mxCell>
        <mxCell id="Xu8PjRT-vQoSqTSK4_cK-12" value="" style="shape=flexArrow;endArrow=classic;html=1;rounded=0;" edge="1" parent="1" target="Xu8PjRT-vQoSqTSK4_cK-13">
          <mxGeometry width="50" height="50" relative="1" as="geometry">
            <mxPoint x="457" y="8410" as="sourcePoint" />
            <mxPoint x="457" y="8460" as="targetPoint" />
            <Array as="points" />
          </mxGeometry>
        </mxCell>
        <mxCell id="Xu8PjRT-vQoSqTSK4_cK-13" value="qtdd" style="whiteSpace=wrap;html=1;aspect=fixed;" vertex="1" parent="1">
          <mxGeometry x="412.5" y="8460" width="80" height="80" as="geometry" />
        </mxCell>
        <mxCell id="Xu8PjRT-vQoSqTSK4_cK-14" value="" style="shape=flexArrow;endArrow=classic;html=1;rounded=0;" edge="1" parent="1">
          <mxGeometry width="50" height="50" relative="1" as="geometry">
            <mxPoint x="456.83000000000004" y="8780" as="sourcePoint" />
            <mxPoint x="456.83000000000004" y="8840" as="targetPoint" />
          </mxGeometry>
        </mxCell>
        <mxCell id="Xu8PjRT-vQoSqTSK4_cK-15" value="&amp;lt;-&amp;nbsp; &amp;nbsp; &amp;nbsp; &amp;nbsp; &amp;nbsp; &amp;nbsp; &amp;nbsp; &amp;nbsp; &amp;nbsp;*&amp;nbsp; &amp;nbsp; &amp;nbsp;&amp;nbsp;" style="rounded=0;whiteSpace=wrap;html=1;" vertex="1" parent="1">
          <mxGeometry x="342.5" y="8835" width="230" height="80" as="geometry" />
        </mxCell>
        <mxCell id="Xu8PjRT-vQoSqTSK4_cK-16" value="total" style="whiteSpace=wrap;html=1;aspect=fixed;" vertex="1" parent="1">
          <mxGeometry x="357.5" y="8850" width="50" height="50" as="geometry" />
        </mxCell>
        <mxCell id="Xu8PjRT-vQoSqTSK4_cK-17" value="qtdd" style="whiteSpace=wrap;html=1;aspect=fixed;" vertex="1" parent="1">
          <mxGeometry x="422.5" y="8850" width="50" height="50" as="geometry" />
        </mxCell>
        <mxCell id="Xu8PjRT-vQoSqTSK4_cK-18" value="valor" style="whiteSpace=wrap;html=1;aspect=fixed;" vertex="1" parent="1">
          <mxGeometry x="487.5" y="8850" width="50" height="50" as="geometry" />
        </mxCell>
        <mxCell id="Xu8PjRT-vQoSqTSK4_cK-19" value="" style="shape=flexArrow;endArrow=classic;html=1;rounded=0;" edge="1" parent="1" target="Xu8PjRT-vQoSqTSK4_cK-22">
          <mxGeometry width="50" height="50" relative="1" as="geometry">
            <mxPoint x="457.50000000000006" y="8915" as="sourcePoint" />
            <mxPoint x="457.50000000000006" y="8965" as="targetPoint" />
            <Array as="points">
              <mxPoint x="457.50000000000006" y="8925" />
            </Array>
          </mxGeometry>
        </mxCell>
        <mxCell id="Xu8PjRT-vQoSqTSK4_cK-20" style="edgeStyle=orthogonalEdgeStyle;rounded=0;orthogonalLoop=1;jettySize=auto;html=1;exitX=0;exitY=0.5;exitDx=0;exitDy=0;" edge="1" parent="1" source="Xu8PjRT-vQoSqTSK4_cK-22">
          <mxGeometry relative="1" as="geometry">
            <mxPoint x="142.5" y="9120" as="targetPoint" />
          </mxGeometry>
        </mxCell>
        <mxCell id="Xu8PjRT-vQoSqTSK4_cK-21" style="edgeStyle=orthogonalEdgeStyle;rounded=0;orthogonalLoop=1;jettySize=auto;html=1;exitX=1;exitY=0.5;exitDx=0;exitDy=0;" edge="1" parent="1" source="Xu8PjRT-vQoSqTSK4_cK-22">
          <mxGeometry relative="1" as="geometry">
            <mxPoint x="752.5" y="9120" as="targetPoint" />
          </mxGeometry>
        </mxCell>
        <mxCell id="Xu8PjRT-vQoSqTSK4_cK-22" value="&amp;gt;&amp;nbsp; 1250" style="rhombus;whiteSpace=wrap;html=1;" vertex="1" parent="1">
          <mxGeometry x="302.5" y="8970" width="310" height="120" as="geometry" />
        </mxCell>
        <mxCell id="Xu8PjRT-vQoSqTSK4_cK-23" value="total" style="whiteSpace=wrap;html=1;aspect=fixed;" vertex="1" parent="1">
          <mxGeometry x="377.5" y="9005" width="50" height="50" as="geometry" />
        </mxCell>
        <mxCell id="Xu8PjRT-vQoSqTSK4_cK-24" style="edgeStyle=orthogonalEdgeStyle;rounded=0;orthogonalLoop=1;jettySize=auto;html=1;exitX=0.5;exitY=1;exitDx=0;exitDy=0;" edge="1" parent="1" source="Xu8PjRT-vQoSqTSK4_cK-29">
          <mxGeometry relative="1" as="geometry">
            <mxPoint x="462.5" y="9320" as="targetPoint" />
          </mxGeometry>
        </mxCell>
        <mxCell id="Xu8PjRT-vQoSqTSK4_cK-25" value="&quot;aprovado&quot;&amp;nbsp; &amp;nbsp;" style="shape=dataStorage;whiteSpace=wrap;html=1;fixedSize=1;" vertex="1" parent="1">
          <mxGeometry x="702.5" y="9120" width="100" height="80" as="geometry" />
        </mxCell>
        <mxCell id="Xu8PjRT-vQoSqTSK4_cK-26" value="V" style="text;html=1;align=center;verticalAlign=middle;whiteSpace=wrap;rounded=0;" vertex="1" parent="1">
          <mxGeometry x="122.5" y="9000" width="60" height="30" as="geometry" />
        </mxCell>
        <mxCell id="Xu8PjRT-vQoSqTSK4_cK-27" value="F" style="text;html=1;align=center;verticalAlign=middle;whiteSpace=wrap;rounded=0;" vertex="1" parent="1">
          <mxGeometry x="707.5" y="9000" width="60" height="30" as="geometry" />
        </mxCell>
        <mxCell id="Xu8PjRT-vQoSqTSK4_cK-28" value="" style="edgeStyle=orthogonalEdgeStyle;rounded=0;orthogonalLoop=1;jettySize=auto;html=1;exitX=0.5;exitY=1;exitDx=0;exitDy=0;" edge="1" parent="1" source="Xu8PjRT-vQoSqTSK4_cK-25" target="Xu8PjRT-vQoSqTSK4_cK-29">
          <mxGeometry relative="1" as="geometry">
            <mxPoint x="462.5" y="9320" as="targetPoint" />
            <mxPoint x="752.5" y="9200" as="sourcePoint" />
            <Array as="points">
              <mxPoint x="752.5" y="9260" />
              <mxPoint x="457.5" y="9260" />
            </Array>
          </mxGeometry>
        </mxCell>
        <mxCell id="Xu8PjRT-vQoSqTSK4_cK-29" value="" style="ellipse;whiteSpace=wrap;html=1;aspect=fixed;" vertex="1" parent="1">
          <mxGeometry x="417.5" y="9270" width="80" height="80" as="geometry" />
        </mxCell>
      </root>
    </mxGraphModel>
  </diagram>
</mxfile>
